SEKUYA-old.ufo
<glyph name="quotedbl" format="2">
  <advance width="565"/>
  <unicode hex="0022"/>
  <outline>
    <contour>
      <point x="88" y="699" type="qcurve"/>
      <point x="301" y="699" type="line"/>
      <point x="273" y="642"/>
      <point x="167" y="436"/>
      <point x="142" y="386" type="qcurve"/>
      <point x="25" y="386" type="line"/>
      <point x="34" y="426"/>
      <point x="83" y="664"/>
      <point x="90" y="698" type="qcurve"/>
      <point x="93" y="699" type="line"/>
      <point x="91" y="691"/>
      <point x="88" y="691"/>
    </contour>
    <contour>
      <point x="311" y="603" type="qcurve" smooth="yes"/>
      <point x="312" y="608"/>
      <point x="328" y="680"/>
      <point x="328" y="699" type="qcurve"/>
      <point x="540" y="699" type="line"/>
      <point x="512" y="642"/>
      <point x="406" y="436"/>
      <point x="381" y="386" type="qcurve"/>
      <point x="264" y="386" type="line"/>
      <point x="272" y="424"/>
      <point x="304" y="566"/>
    </contour>
  </outline>
</glyph>
<glyph name="parenleft" format="2">
  <advance width="285"/>
  <unicode hex="0028"/>
  <outline>
    <contour>
      <point x="111" y="614" type="qcurve" smooth="yes"/>
      <point x="132" y="653"/>
      <point x="181" y="721" type="qcurve"/>
      <point x="255" y="721" type="line"/>
      <point x="161" y="502"/>
      <point x="164" y="21"/>
      <point x="260" y="-198" type="qcurve"/>
      <point x="191" y="-198" type="line"/>
      <point x="99" y="-87"/>
      <point x="58" y="47" type="qcurve" smooth="yes"/>
      <point x="14" y="184"/>
      <point x="43" y="488"/>
    </contour>
  </outline>
</glyph>
<glyph name="period" format="2">
  <advance width="299"/>
  <unicode hex="002E"/>
  <outline>
    <contour>
      <point x="95" y="152" type="qcurve" smooth="yes"/>
      <point x="163" y="161"/>
      <point x="212" y="147" type="qcurve"/>
      <point x="255" y="141"/>
      <point x="270" y="94" type="qcurve"/>
      <point x="284" y="32"/>
      <point x="249" y="-2" type="qcurve"/>
      <point x="217" y="-21"/>
      <point x="147" y="-21" type="qcurve" smooth="yes"/>
      <point x="79" y="-21"/>
      <point x="52" y="-2" type="qcurve"/>
      <point x="33" y="17"/>
      <point x="22" y="76"/>
      <point x="31" y="99" type="qcurve" smooth="yes"/>
      <point x="35" y="118"/>
      <point x="74" y="148"/>
      <point x="95" y="152" type="qcurve" smooth="yes"/>
      <point x="163" y="161"/>
      <point x="212" y="147" type="qcurve"/>
      <point x="255" y="141"/>
      <point x="270" y="94" type="qcurve"/>
      <point x="284" y="32"/>
      <point x="249" y="-2" type="qcurve"/>
      <point x="217" y="-21"/>
      <point x="147" y="-21" type="qcurve" smooth="yes"/>
      <point x="79" y="-21"/>
      <point x="52" y="-2" type="qcurve"/>
      <point x="33" y="17"/>
      <point x="22" y="76"/>
      <point x="31" y="99" type="qcurve" smooth="yes"/>
      <point x="35" y="118"/>
      <point x="74" y="148"/>
      <point x="95" y="152" type="qcurve" smooth="yes"/>
      <point x="163" y="161"/>
      <point x="212" y="147" type="qcurve"/>
      <point x="255" y="141"/>
      <point x="270" y="94" type="qcurve"/>
      <point x="284" y="32"/>
      <point x="249" y="-2" type="qcurve"/>
      <point x="217" y="-21"/>
      <point x="147" y="-21" type="qcurve" smooth="yes"/>
      <point x="79" y="-21"/>
      <point x="52" y="-2" type="qcurve"/>
      <point x="33" y="17"/>
      <point x="22" y="76"/>
      <point x="31" y="99" type="qcurve" smooth="yes"/>
      <point x="35" y="118"/>
      <point x="74" y="148"/>
    </contour>
  </outline>
</glyph>
<glyph name="slash" format="2">
  <advance width="484"/>
  <unicode hex="002F"/>
  <outline>
    <contour>
      <point x="339" y="752" type="qcurve"/>
      <point x="459" y="752" type="line"/>
      <point x="416" y="631"/>
      <point x="205" y="42"/>
      <point x="147" y="-118" type="qcurve"/>
      <point x="25" y="-118" type="line"/>
      <point x="336" y="743"/>
      <point x="339" y="752" type="qcurve"/>
      <point x="459" y="752" type="line"/>
      <point x="416" y="631"/>
      <point x="205" y="42"/>
      <point x="147" y="-118" type="qcurve"/>
      <point x="25" y="-118" type="line"/>
      <point x="336" y="743"/>
      <point x="339" y="752" type="qcurve"/>
      <point x="459" y="752" type="line"/>
      <point x="416" y="631"/>
      <point x="205" y="42"/>
      <point x="147" y="-118" type="qcurve"/>
      <point x="25" y="-118" type="line"/>
      <point x="336" y="743"/>
    </contour>
  </outline>
</glyph>
<glyph name="zero" format="2">
  <advance width="990"/>
  <unicode hex="0030"/>
  <outline>
    <contour>
      <point x="406" y="714" type="qcurve" smooth="yes"/>
      <point x="632" y="734"/>
      <point x="777" y="663" type="qcurve" smooth="yes"/>
      <point x="840" y="633"/>
      <point x="931" y="530"/>
      <point x="949" y="465" type="qcurve" smooth="yes"/>
      <point x="970" y="394"/>
      <point x="956" y="236"/>
      <point x="921" y="169" type="qcurve" smooth="yes"/>
      <point x="862" y="60"/>
      <point x="729" y="13" type="qcurve" smooth="yes"/>
      <point x="596" y="-35"/>
      <point x="414" y="-19" type="qcurve" smooth="yes"/>
      <point x="225" y="-3"/>
      <point x="125" y="95" type="qcurve" smooth="yes"/>
      <point x="75" y="142"/>
      <point x="24" y="278"/>
      <point x="25" y="352" type="qcurve" smooth="yes"/>
      <point x="24" y="423"/>
      <point x="72" y="551"/>
      <point x="119" y="598" type="qcurve" smooth="yes"/>
      <point x="215" y="694"/>
    </contour>
    <contour>
      <point x="448" y="570" type="qcurve" smooth="yes"/>
      <point x="403" y="558"/>
      <point x="377" y="515" type="qcurve" smooth="yes"/>
      <point x="345" y="459"/>
      <point x="343" y="362" type="qcurve" smooth="yes"/>
      <point x="342" y="310"/>
      <point x="352" y="234"/>
      <point x="370" y="200" type="qcurve" smooth="yes"/>
      <point x="393" y="149"/>
      <point x="457" y="137" type="qcurve" smooth="yes"/>
      <point x="533" y="125"/>
      <point x="581" y="157" type="qcurve" smooth="yes"/>
      <point x="625" y="186"/>
      <point x="638" y="262" type="qcurve" smooth="yes"/>
      <point x="651" y="342"/>
      <point x="639" y="426" type="qcurve" smooth="yes"/>
      <point x="626" y="509"/>
      <point x="587" y="545" type="qcurve" smooth="yes"/>
      <point x="561" y="570"/>
      <point x="482" y="581"/>
    </contour>
  </outline>
</glyph>
<glyph name="one" format="2">
  <advance width="552"/>
  <unicode hex="0031"/>
  <outline>
    <contour>
      <point x="270" y="699" type="qcurve" smooth="yes"/>
      <point x="277" y="703"/>
      <point x="290" y="703" type="qcurve" smooth="yes"/>
      <point x="476" y="703" type="line"/>
      <point x="476" y="96" type="line" smooth="yes"/>
      <point x="474" y="29"/>
      <point x="527" y="0" type="qcurve"/>
      <point x="527" y="0"/>
      <point x="141" y="0" type="qcurve"/>
      <point x="194" y="29"/>
      <point x="192" y="96" type="qcurve" smooth="yes"/>
      <point x="192" y="521" type="line"/>
      <point x="117" y="494"/>
      <point x="25" y="463" type="qcurve"/>
      <point x="25" y="587" type="line"/>
      <point x="155" y="645"/>
    </contour>
  </outline>
</glyph>
<glyph name="eight" format="2">
  <advance width="892"/>
  <unicode hex="0038"/>
  <outline>
    <contour>
      <point x="274" y="703" type="qcurve" smooth="yes"/>
      <point x="393" y="725"/>
      <point x="555" y="713" type="qcurve" smooth="yes"/>
      <point x="620" y="706"/>
      <point x="712" y="685"/>
      <point x="751" y="660" type="qcurve" smooth="yes"/>
      <point x="778" y="642"/>
      <point x="812" y="589"/>
      <point x="814" y="559" type="qcurve" smooth="yes"/>
      <point x="822" y="471"/>
      <point x="782" y="421" type="qcurve" smooth="yes"/>
      <point x="763" y="397"/>
      <point x="725" y="377" type="qcurve"/>
      <point x="810" y="348"/>
      <point x="845" y="291" type="qcurve" smooth="yes"/>
      <point x="866" y="256"/>
      <point x="868" y="165"/>
      <point x="853" y="127" type="qcurve" smooth="yes"/>
      <point x="822" y="49"/>
      <point x="721" y="13" type="qcurve" smooth="yes"/>
      <point x="618" y="-23"/>
      <point x="443" y="-23" type="qcurve" smooth="yes"/>
      <point x="382" y="-22"/>
      <point x="315" y="-20"/>
      <point x="213" y="-7"/>
      <point x="172" y="6" type="qcurve" smooth="yes"/>
      <point x="76" y="34"/>
      <point x="44" y="102" type="qcurve" smooth="yes"/>
      <point x="11" y="176"/>
      <point x="35" y="254" type="qcurve" smooth="yes"/>
      <point x="61" y="330"/>
      <point x="164" y="372" type="qcurve"/>
      <point x="134" y="384"/>
      <point x="92" y="428"/>
      <point x="85" y="457" type="qcurve" smooth="yes"/>
      <point x="60" y="564"/>
      <point x="112" y="625" type="qcurve" smooth="yes"/>
      <point x="161" y="682"/>
    </contour>
    <contour>
      <point x="407" y="594" type="qcurve" smooth="yes"/>
      <point x="386" y="590"/>
      <point x="355" y="559"/>
      <point x="352" y="538" type="qcurve" smooth="yes"/>
      <point x="343" y="483"/>
      <point x="361" y="450" type="qcurve" smooth="yes"/>
      <point x="380" y="417"/>
      <point x="438" y="415" type="qcurve" smooth="yes"/>
      <point x="457" y="415"/>
      <point x="479" y="417"/>
      <point x="511" y="427"/>
      <point x="521" y="438" type="qcurve" smooth="yes"/>
      <point x="546" y="465"/>
      <point x="540" y="521" type="qcurve" smooth="yes"/>
      <point x="538" y="571"/>
      <point x="504" y="587" type="qcurve" smooth="yes"/>
      <point x="464" y="606"/>
    </contour>
    <contour>
      <point x="403" y="310" type="qcurve" smooth="yes"/>
      <point x="380" y="306"/>
      <point x="347" y="275"/>
      <point x="341" y="252" type="qcurve" smooth="yes"/>
      <point x="329" y="194"/>
      <point x="351" y="153" type="qcurve" smooth="yes"/>
      <point x="373" y="117"/>
      <point x="438" y="115" type="qcurve" smooth="yes"/>
      <point x="505" y="115"/>
      <point x="531" y="141" type="qcurve" smooth="yes"/>
      <point x="556" y="171"/>
      <point x="550" y="234" type="qcurve" smooth="yes"/>
      <point x="548" y="286"/>
      <point x="511" y="303" type="qcurve" smooth="yes"/>
      <point x="466" y="322"/>
    </contour>
  </outline>
</glyph>
<glyph name="less" format="2">
  <advance width="608"/>
  <unicode hex="003C"/>
  <outline>
    <contour>
      <point x="25" y="301" type="qcurve"/>
      <point x="25" y="438" type="line"/>
      <point x="394" y="564"/>
      <point x="577" y="629" type="qcurve"/>
      <point x="577" y="614"/>
      <point x="580" y="564"/>
      <point x="580" y="524"/>
      <point x="577" y="508" type="qcurve"/>
      <point x="350" y="426"/>
      <point x="174" y="370" type="qcurve"/>
      <point x="237" y="348"/>
      <point x="507" y="256"/>
      <point x="577" y="231" type="qcurve"/>
      <point x="580" y="210"/>
      <point x="580" y="126"/>
      <point x="583" y="104" type="qcurve"/>
      <point x="481" y="139"/>
      <point x="105" y="273"/>
    </contour>
  </outline>
</glyph>
<glyph name="at" format="2">
  <advance width="1095"/>
  <unicode hex="0040"/>
  <outline>
    <contour>
      <point x="530" y="679" type="qcurve"/>
      <point x="715" y="688"/>
      <point x="838" y="641" type="qcurve"/>
      <point x="965" y="603"/>
      <point x="1024" y="508" type="qcurve" smooth="yes"/>
      <point x="1084" y="418"/>
      <point x="1066" y="284" type="qcurve" smooth="yes"/>
      <point x="1057" y="233"/>
      <point x="1005" y="141"/>
      <point x="966" y="111" type="qcurve" smooth="yes"/>
      <point x="920" y="71"/>
      <point x="796" y="36"/>
      <point x="732" y="40" type="qcurve" smooth="yes"/>
      <point x="688" y="46"/>
      <point x="615" y="86"/>
      <point x="599" y="120" type="qcurve"/>
      <point x="511" y="32"/>
      <point x="382" y="40" type="qcurve"/>
      <point x="340" y="47"/>
      <point x="280" y="69"/>
      <point x="259" y="94" type="qcurve" smooth="yes"/>
      <point x="223" y="130"/>
      <point x="223" y="216" type="qcurve"/>
      <point x="231" y="332"/>
      <point x="302" y="401" type="qcurve" smooth="yes"/>
      <point x="371" y="465"/>
      <point x="493" y="465" type="qcurve"/>
      <point x="568" y="458"/>
      <point x="641" y="396" type="qcurve"/>
      <point x="641" y="434"/>
      <point x="631" y="455" type="qcurve"/>
      <point x="661" y="455"/>
      <point x="772" y="453"/>
      <point x="862" y="453"/>
      <point x="902" y="455" type="qcurve"/>
      <point x="855" y="425"/>
      <point x="855" y="381" type="qcurve"/>
      <point x="823" y="173" type="line"/>
      <point x="812" y="140"/>
      <point x="828" y="125" type="qcurve" smooth="yes"/>
      <point x="833" y="120"/>
      <point x="847" y="115"/>
      <point x="855" y="114"/>
      <point x="872" y="115"/>
      <point x="875" y="115" type="qcurve" smooth="yes"/>
      <point x="914" y="126"/>
      <point x="975" y="183"/>
      <point x="992" y="221" type="qcurve" smooth="yes"/>
      <point x="1027" y="311"/>
      <point x="1003" y="408" type="qcurve" smooth="yes"/>
      <point x="994" y="456"/>
      <point x="936" y="537"/>
      <point x="892" y="560" type="qcurve"/>
      <point x="791" y="629"/>
      <point x="621" y="629" type="qcurve"/>
      <point x="409" y="638"/>
      <point x="275" y="545" type="qcurve"/>
      <point x="152" y="471"/>
      <point x="111" y="344" type="qcurve" smooth="yes"/>
      <point x="66" y="192"/>
      <point x="127" y="72" type="qcurve"/>
      <point x="170" y="-30"/>
      <point x="296" y="-85" type="qcurve" smooth="yes"/>
      <point x="416" y="-140"/>
      <point x="572" y="-113" type="qcurve" smooth="yes"/>
      <point x="628" y="-104"/>
      <point x="663" y="-80" type="qcurve"/>
      <point x="663" y="-134" type="line"/>
      <point x="598" y="-163"/>
      <point x="515" y="-171" type="qcurve" smooth="yes"/>
      <point x="343" y="-189"/>
      <point x="211" y="-113" type="qcurve"/>
      <point x="100" y="-44"/>
      <point x="53" y="67" type="qcurve" smooth="yes"/>
      <point x="8" y="174"/>
      <point x="36" y="312" type="qcurve"/>
      <point x="70" y="455"/>
      <point x="191" y="550" type="qcurve" smooth="yes"/>
      <point x="313" y="646"/>
    </contour>
    <contour>
      <point x="509" y="359" type="qcurve"/>
      <point x="471" y="346"/>
      <point x="451" y="274" type="qcurve" smooth="yes"/>
      <point x="438" y="216"/>
      <point x="451" y="179" type="qcurve" smooth="yes"/>
      <point x="462" y="143"/>
      <point x="499" y="143" type="qcurve"/>
      <point x="550" y="131"/>
      <point x="584" y="167" type="qcurve" smooth="yes"/>
      <point x="589" y="176"/>
      <point x="598" y="197"/>
      <point x="605" y="224"/>
      <point x="609" y="239"/>
      <point x="615" y="275"/>
      <point x="616" y="279" type="qcurve" smooth="yes"/>
      <point x="616" y="299"/>
      <point x="615" y="318"/>
      <point x="604" y="347"/>
      <point x="594" y="354" type="qcurve" smooth="yes"/>
      <point x="559" y="368"/>
    </contour>
    <contour>
      <point x="530" y="679" type="qcurve"/>
      <point x="715" y="688"/>
      <point x="838" y="641" type="qcurve"/>
      <point x="965" y="603"/>
      <point x="1024" y="508" type="qcurve" smooth="yes"/>
      <point x="1084" y="418"/>
      <point x="1066" y="284" type="qcurve" smooth="yes"/>
      <point x="1057" y="233"/>
      <point x="1005" y="141"/>
      <point x="966" y="111" type="qcurve" smooth="yes"/>
      <point x="920" y="71"/>
      <point x="796" y="36"/>
      <point x="732" y="40" type="qcurve" smooth="yes"/>
      <point x="688" y="46"/>
      <point x="615" y="86"/>
      <point x="599" y="120" type="qcurve"/>
      <point x="511" y="32"/>
      <point x="382" y="40" type="qcurve"/>
      <point x="340" y="47"/>
      <point x="280" y="69"/>
      <point x="259" y="94" type="qcurve" smooth="yes"/>
      <point x="223" y="130"/>
      <point x="223" y="216" type="qcurve"/>
      <point x="231" y="332"/>
      <point x="302" y="401" type="qcurve" smooth="yes"/>
      <point x="371" y="465"/>
      <point x="493" y="465" type="qcurve"/>
      <point x="568" y="458"/>
      <point x="641" y="396" type="qcurve"/>
      <point x="641" y="434"/>
      <point x="631" y="455" type="qcurve"/>
      <point x="661" y="455"/>
      <point x="772" y="453"/>
      <point x="862" y="453"/>
      <point x="902" y="455" type="qcurve"/>
      <point x="855" y="425"/>
      <point x="855" y="381" type="qcurve"/>
      <point x="823" y="173" type="line"/>
      <point x="812" y="140"/>
      <point x="828" y="125" type="qcurve" smooth="yes"/>
      <point x="833" y="120"/>
      <point x="847" y="115"/>
      <point x="855" y="114"/>
      <point x="872" y="115"/>
      <point x="875" y="115" type="qcurve" smooth="yes"/>
      <point x="914" y="126"/>
      <point x="975" y="183"/>
      <point x="992" y="221" type="qcurve" smooth="yes"/>
      <point x="1027" y="311"/>
      <point x="1003" y="408" type="qcurve" smooth="yes"/>
      <point x="994" y="456"/>
      <point x="936" y="537"/>
      <point x="892" y="560" type="qcurve"/>
      <point x="791" y="629"/>
      <point x="621" y="629" type="qcurve"/>
      <point x="409" y="638"/>
      <point x="275" y="545" type="qcurve"/>
      <point x="152" y="471"/>
      <point x="111" y="344" type="qcurve" smooth="yes"/>
      <point x="66" y="192"/>
      <point x="127" y="72" type="qcurve"/>
      <point x="170" y="-30"/>
      <point x="296" y="-85" type="qcurve" smooth="yes"/>
      <point x="416" y="-140"/>
      <point x="572" y="-113" type="qcurve" smooth="yes"/>
      <point x="628" y="-104"/>
      <point x="663" y="-80" type="qcurve"/>
      <point x="663" y="-134" type="line"/>
      <point x="598" y="-163"/>
      <point x="515" y="-171" type="qcurve" smooth="yes"/>
      <point x="343" y="-189"/>
      <point x="211" y="-113" type="qcurve"/>
      <point x="100" y="-44"/>
      <point x="53" y="67" type="qcurve" smooth="yes"/>
      <point x="8" y="174"/>
      <point x="36" y="312" type="qcurve"/>
      <point x="70" y="455"/>
      <point x="191" y="550" type="qcurve" smooth="yes"/>
      <point x="313" y="646"/>
    </contour>
    <contour>
      <point x="509" y="359" type="qcurve"/>
      <point x="471" y="346"/>
      <point x="451" y="274" type="qcurve" smooth="yes"/>
      <point x="438" y="216"/>
      <point x="451" y="179" type="qcurve" smooth="yes"/>
      <point x="462" y="143"/>
      <point x="499" y="143" type="qcurve"/>
      <point x="550" y="131"/>
      <point x="584" y="167" type="qcurve" smooth="yes"/>
      <point x="589" y="176"/>
      <point x="598" y="197"/>
      <point x="605" y="224"/>
      <point x="609" y="239"/>
      <point x="615" y="275"/>
      <point x="616" y="279" type="qcurve" smooth="yes"/>
      <point x="616" y="299"/>
      <point x="615" y="318"/>
      <point x="604" y="347"/>
      <point x="594" y="354" type="qcurve" smooth="yes"/>
      <point x="559" y="368"/>
    </contour>
    <contour>
      <point x="530" y="679" type="qcurve"/>
      <point x="715" y="688"/>
      <point x="838" y="641" type="qcurve"/>
      <point x="965" y="603"/>
      <point x="1024" y="508" type="qcurve" smooth="yes"/>
      <point x="1084" y="418"/>
      <point x="1066" y="284" type="qcurve" smooth="yes"/>
      <point x="1057" y="233"/>
      <point x="1005" y="141"/>
      <point x="966" y="111" type="qcurve" smooth="yes"/>
      <point x="920" y="71"/>
      <point x="796" y="36"/>
      <point x="732" y="40" type="qcurve" smooth="yes"/>
      <point x="688" y="46"/>
      <point x="615" y="86"/>
      <point x="599" y="120" type="qcurve"/>
      <point x="511" y="32"/>
      <point x="382" y="40" type="qcurve"/>
      <point x="340" y="47"/>
      <point x="280" y="69"/>
      <point x="259" y="94" type="qcurve" smooth="yes"/>
      <point x="223" y="130"/>
      <point x="223" y="216" type="qcurve"/>
      <point x="231" y="332"/>
      <point x="302" y="401" type="qcurve" smooth="yes"/>
      <point x="371" y="465"/>
      <point x="493" y="465" type="qcurve"/>
      <point x="568" y="458"/>
      <point x="641" y="396" type="qcurve"/>
      <point x="641" y="434"/>
      <point x="631" y="455" type="qcurve"/>
      <point x="661" y="455"/>
      <point x="772" y="453"/>
      <point x="862" y="453"/>
      <point x="902" y="455" type="qcurve"/>
      <point x="855" y="425"/>
      <point x="855" y="381" type="qcurve"/>
      <point x="823" y="173" type="line"/>
      <point x="812" y="140"/>
      <point x="828" y="125" type="qcurve" smooth="yes"/>
      <point x="833" y="120"/>
      <point x="847" y="115"/>
      <point x="855" y="114"/>
      <point x="872" y="115"/>
      <point x="875" y="115" type="qcurve" smooth="yes"/>
      <point x="914" y="126"/>
      <point x="975" y="183"/>
      <point x="992" y="221" type="qcurve" smooth="yes"/>
      <point x="1027" y="311"/>
      <point x="1003" y="408" type="qcurve" smooth="yes"/>
      <point x="994" y="456"/>
      <point x="936" y="537"/>
      <point x="892" y="560" type="qcurve"/>
      <point x="791" y="629"/>
      <point x="621" y="629" type="qcurve"/>
      <point x="409" y="638"/>
      <point x="275" y="545" type="qcurve"/>
      <point x="152" y="471"/>
      <point x="111" y="344" type="qcurve" smooth="yes"/>
      <point x="66" y="192"/>
      <point x="127" y="72" type="qcurve"/>
      <point x="170" y="-30"/>
      <point x="296" y="-85" type="qcurve" smooth="yes"/>
      <point x="416" y="-140"/>
      <point x="572" y="-113" type="qcurve" smooth="yes"/>
      <point x="628" y="-104"/>
      <point x="663" y="-80" type="qcurve"/>
      <point x="663" y="-134" type="line"/>
      <point x="598" y="-163"/>
      <point x="515" y="-171" type="qcurve" smooth="yes"/>
      <point x="343" y="-189"/>
      <point x="211" y="-113" type="qcurve"/>
      <point x="100" y="-44"/>
      <point x="53" y="67" type="qcurve" smooth="yes"/>
      <point x="8" y="174"/>
      <point x="36" y="312" type="qcurve"/>
      <point x="70" y="455"/>
      <point x="191" y="550" type="qcurve" smooth="yes"/>
      <point x="313" y="646"/>
    </contour>
    <contour>
      <point x="509" y="359" type="qcurve"/>
      <point x="471" y="346"/>
      <point x="451" y="274" type="qcurve" smooth="yes"/>
      <point x="438" y="216"/>
      <point x="451" y="179" type="qcurve" smooth="yes"/>
      <point x="462" y="143"/>
      <point x="499" y="143" type="qcurve"/>
      <point x="550" y="131"/>
      <point x="584" y="167" type="qcurve" smooth="yes"/>
      <point x="589" y="176"/>
      <point x="598" y="197"/>
      <point x="605" y="224"/>
      <point x="609" y="239"/>
      <point x="615" y="275"/>
      <point x="616" y="279" type="qcurve" smooth="yes"/>
      <point x="616" y="299"/>
      <point x="615" y="318"/>
      <point x="604" y="347"/>
      <point x="594" y="354" type="qcurve" smooth="yes"/>
      <point x="559" y="368"/>
    </contour>
  </outline>
</glyph>
<glyph name="F" format="2">
  <advance width="793"/>
  <unicode hex="0046"/>
  <outline>
    <contour>
      <point x="25" y="701" type="qcurve"/>
      <point x="150" y="700"/>
      <point x="644" y="700"/>
      <point x="768" y="700" type="qcurve"/>
      <point x="768" y="489"/>
      <point x="768" y="489" type="qcurve"/>
      <point x="740" y="530"/>
      <point x="674" y="532" type="qcurve" smooth="yes"/>
      <point x="359" y="532" type="line"/>
      <point x="359" y="408" type="line"/>
      <point x="689" y="408" type="line"/>
      <point x="689" y="259" type="line"/>
      <point x="359" y="259" type="line"/>
      <point x="359" y="91" type="line" smooth="yes"/>
      <point x="359" y="31"/>
      <point x="409" y="0" type="qcurve"/>
      <point x="217" y="2"/>
      <point x="25" y="0" type="qcurve"/>
      <point x="49" y="14"/>
      <point x="77" y="67"/>
      <point x="76" y="95" type="qcurve" smooth="yes"/>
      <point x="76" y="606" type="line" smooth="yes"/>
      <point x="77" y="636"/>
      <point x="50" y="687"/>
    </contour>
  </outline>
</glyph>
<glyph name="Q" format="2">
  <advance width="1016"/>
  <unicode hex="0051"/>
  <outline>
    <contour>
      <point x="279" y="690" type="qcurve" smooth="yes"/>
      <point x="413" y="726"/>
      <point x="591" y="714" type="qcurve" smooth="yes"/>
      <point x="782" y="699"/>
      <point x="883" y="611" type="qcurve" smooth="yes"/>
      <point x="929" y="570"/>
      <point x="982" y="453"/>
      <point x="988" y="388" type="qcurve" smooth="yes"/>
      <point x="1003" y="212"/>
      <point x="919" y="113" type="qcurve" smooth="yes"/>
      <point x="843" y="20"/>
      <point x="673" y="-10" type="qcurve"/>
      <point x="781" y="-175" type="line"/>
      <point x="508" y="-175" type="line"/>
      <point x="475" y="-24" type="line"/>
      <point x="375" y="-21"/>
      <point x="211" y="14"/>
      <point x="146" y="59" type="qcurve" smooth="yes"/>
      <point x="95" y="94"/>
      <point x="35" y="207"/>
      <point x="29" y="272" type="qcurve" smooth="yes"/>
      <point x="9" y="447"/>
      <point x="79" y="554" type="qcurve" smooth="yes"/>
      <point x="137" y="649"/>
    </contour>
    <contour>
      <point x="471" y="564" type="qcurve" smooth="yes"/>
      <point x="414" y="552"/>
      <point x="386" y="513" type="qcurve" smooth="yes"/>
      <point x="352" y="464"/>
      <point x="347" y="382" type="qcurve" smooth="yes"/>
      <point x="342" y="303"/>
      <point x="353" y="247" type="qcurve" smooth="yes"/>
      <point x="368" y="180"/>
      <point x="409" y="153" type="qcurve" smooth="yes"/>
      <point x="454" y="122"/>
      <point x="538" y="130" type="qcurve" smooth="yes"/>
      <point x="570" y="133"/>
      <point x="625" y="164"/>
      <point x="640" y="191" type="qcurve" smooth="yes"/>
      <point x="659" y="226"/>
      <point x="669" y="307"/>
      <point x="668" y="361" type="qcurve" smooth="yes"/>
      <point x="662" y="473"/>
      <point x="620" y="523" type="qcurve" smooth="yes"/>
      <point x="594" y="552"/>
      <point x="514" y="571"/>
    </contour>
  </outline>
</glyph>
<glyph name="X" format="2">
  <advance width="1086"/>
  <unicode hex="0058"/>
  <outline>
    <contour>
      <point x="25" y="700" type="qcurve"/>
      <point x="341" y="700"/>
      <point x="501" y="701" type="qcurve"/>
      <point x="481" y="687"/>
      <point x="480" y="632"/>
      <point x="495" y="614" type="qcurve" smooth="yes"/>
      <point x="579" y="516" type="line"/>
      <point x="669" y="617" type="line" smooth="yes"/>
      <point x="685" y="635"/>
      <point x="681" y="689"/>
      <point x="660" y="701" type="qcurve"/>
      <point x="785" y="700"/>
      <point x="1033" y="700" type="qcurve"/>
      <point x="970" y="683"/>
      <point x="909" y="620" type="qcurve" smooth="yes"/>
      <point x="873" y="579"/>
      <point x="735" y="417"/>
      <point x="699" y="376" type="qcurve"/>
      <point x="906" y="136" type="line" smooth="yes"/>
      <point x="939" y="98"/>
      <point x="969" y="65"/>
      <point x="1031" y="12"/>
      <point x="1061" y="-2" type="qcurve"/>
      <point x="1007" y="-1"/>
      <point x="580" y="-1" type="qcurve"/>
      <point x="603" y="19"/>
      <point x="595" y="81"/>
      <point x="573" y="101" type="qcurve" smooth="yes"/>
      <point x="545" y="132"/>
      <point x="491" y="196" type="qcurve"/>
      <point x="424" y="125"/>
      <point x="390" y="85" type="qcurve" smooth="yes"/>
      <point x="373" y="68"/>
      <point x="374" y="13"/>
      <point x="396" y="-1" type="qcurve"/>
      <point x="396" y="-1"/>
      <point x="28" y="-1" type="qcurve"/>
      <point x="101" y="33"/>
      <point x="143" y="82" type="qcurve" smooth="yes"/>
      <point x="321" y="289"/>
      <point x="366" y="340" type="qcurve"/>
      <point x="148" y="593"/>
      <point x="132" y="613" type="qcurve" smooth="yes"/>
      <point x="89" y="668"/>
    </contour>
  </outline>
</glyph>
<glyph name="Y" format="2">
  <advance width="1095"/>
  <unicode hex="0059"/>
  <outline>
    <contour>
      <point x="411" y="237" type="line"/>
      <point x="110" y="629" type="line" smooth="yes"/>
      <point x="63" y="689"/>
      <point x="25" y="701" type="qcurve"/>
      <point x="405" y="701" type="line"/>
      <point x="393" y="690"/>
      <point x="393" y="673" type="qcurve" smooth="yes"/>
      <point x="393" y="655"/>
      <point x="415" y="629" type="qcurve" smooth="yes"/>
      <point x="547" y="457" type="line"/>
      <point x="680" y="629" type="line" smooth="yes"/>
      <point x="703" y="656"/>
      <point x="703" y="673" type="qcurve" smooth="yes"/>
      <point x="703" y="689"/>
      <point x="691" y="701" type="qcurve"/>
      <point x="1070" y="701" type="line"/>
      <point x="1049" y="693"/>
      <point x="997" y="648"/>
      <point x="985" y="629" type="qcurve" smooth="yes"/>
      <point x="683" y="237" type="line"/>
      <point x="683" y="215" type="line" smooth="yes"/>
      <point x="683" y="40"/>
      <point x="742" y="1" type="qcurve"/>
      <point x="352" y="1" type="line"/>
      <point x="387" y="23"/>
      <point x="411" y="130"/>
      <point x="411" y="215" type="qcurve" smooth="yes"/>
    </contour>
  </outline>
</glyph>
<glyph name="c" format="2">
  <advance width="914"/>
  <unicode hex="0063"/>
  <outline>
    <contour>
      <point x="186" y="634" type="qcurve" smooth="yes"/>
      <point x="311" y="709"/>
      <point x="517" y="718" type="qcurve" smooth="yes"/>
      <point x="719" y="725"/>
      <point x="877" y="666" type="qcurve"/>
      <point x="877" y="440" type="line"/>
      <point x="760" y="524"/>
      <point x="629" y="535" type="qcurve" smooth="yes"/>
      <point x="503" y="544"/>
      <point x="431" y="506" type="qcurve" smooth="yes"/>
      <point x="398" y="488"/>
      <point x="354" y="429"/>
      <point x="349" y="394" type="qcurve" smooth="yes"/>
      <point x="343" y="347"/>
      <point x="367" y="258"/>
      <point x="399" y="227" type="qcurve" smooth="yes"/>
      <point x="452" y="175"/>
      <point x="565" y="166" type="qcurve" smooth="yes"/>
      <point x="654" y="158"/>
      <point x="822" y="204"/>
      <point x="889" y="259" type="qcurve"/>
      <point x="889" y="42" type="line"/>
      <point x="828" y="10"/>
      <point x="691" y="-16"/>
      <point x="597" y="-23" type="qcurve" smooth="yes"/>
      <point x="380" y="-30"/>
      <point x="243" y="22" type="qcurve" smooth="yes"/>
      <point x="109" y="75"/>
      <point x="58" y="183" type="qcurve" smooth="yes"/>
      <point x="5" y="297"/>
      <point x="36" y="436" type="qcurve" smooth="yes"/>
      <point x="50" y="498"/>
      <point x="130" y="601"/>
    </contour>
  </outline>
</glyph>
<glyph name="h" format="2">
  <advance width="1029"/>
  <unicode hex="0068"/>
  <outline>
    <contour>
      <point x="27" y="700" type="qcurve"/>
      <point x="383" y="700" type="line"/>
      <point x="362" y="677"/>
      <point x="360" y="617" type="qcurve" smooth="yes"/>
      <point x="360" y="438" type="line"/>
      <point x="671" y="438" type="line"/>
      <point x="671" y="617" type="line" smooth="yes"/>
      <point x="669" y="677"/>
      <point x="648" y="700" type="qcurve"/>
      <point x="1004" y="700" type="line"/>
      <point x="980" y="686"/>
      <point x="953" y="635"/>
      <point x="954" y="607" type="qcurve" smooth="yes"/>
      <point x="954" y="96" type="line" smooth="yes"/>
      <point x="953" y="66"/>
      <point x="980" y="14"/>
      <point x="1004" y="0" type="qcurve"/>
      <point x="648" y="0" type="line"/>
      <point x="669" y="23"/>
      <point x="671" y="85" type="qcurve" smooth="yes"/>
      <point x="671" y="295" type="line"/>
      <point x="360" y="295" type="line"/>
      <point x="360" y="85" type="line" smooth="yes"/>
      <point x="362" y="22"/>
      <point x="384" y="0" type="qcurve"/>
      <point x="25" y="0" type="line"/>
      <point x="50" y="12"/>
      <point x="78" y="66"/>
      <point x="77" y="96" type="qcurve" smooth="yes"/>
      <point x="77" y="606" type="line" smooth="yes"/>
      <point x="78" y="634"/>
      <point x="51" y="686"/>
    </contour>
  </outline>
</glyph>
<glyph name="i" format="2">
  <advance width="433"/>
  <unicode hex="0069"/>
  <outline>
    <contour>
      <point x="25" y="700" type="qcurve"/>
      <point x="408" y="700" type="line"/>
      <point x="384" y="686"/>
      <point x="357" y="634"/>
      <point x="358" y="606" type="qcurve" smooth="yes"/>
      <point x="358" y="95" type="line" smooth="yes"/>
      <point x="357" y="65"/>
      <point x="384" y="13"/>
      <point x="408" y="-1" type="qcurve"/>
      <point x="25" y="-1"/>
      <point x="25" y="-1" type="qcurve"/>
      <point x="75" y="30"/>
      <point x="75" y="90" type="qcurve" smooth="yes"/>
      <point x="75" y="605" type="line" smooth="yes"/>
      <point x="76" y="634"/>
      <point x="49" y="686"/>
    </contour>
  </outline>
</glyph>
<glyph name="bar" format="2">
  <advance width="186"/>
  <unicode hex="007C"/>
  <outline>
    <contour>
      <point x="161" y="762" type="line"/>
      <point x="161" y="-100" type="line"/>
      <point x="25" y="-100" type="line"/>
      <point x="25" y="762" type="line"/>
    </contour>
  </outline>
</glyph>
<glyph name="braceright" format="2">
  <advance width="401"/>
  <unicode hex="007D"/>
  <outline>
    <contour>
      <point x="25" y="694" type="qcurve"/>
      <point x="25" y="784" type="line"/>
      <point x="32" y="784"/>
      <point x="76" y="785"/>
      <point x="96" y="784"/>
      <point x="134" y="782"/>
      <point x="158" y="776"/>
      <point x="189" y="766"/>
      <point x="202" y="758" type="qcurve" smooth="yes"/>
      <point x="264" y="719"/>
      <point x="264" y="624" type="qcurve" smooth="yes"/>
      <point x="264" y="381" type="line" smooth="yes"/>
      <point x="264" y="343"/>
      <point x="302" y="328" type="qcurve" smooth="yes"/>
      <point x="312" y="323"/>
      <point x="332" y="320"/>
      <point x="372" y="322"/>
      <point x="376" y="322" type="qcurve"/>
      <point x="376" y="184" type="line"/>
      <point x="371" y="184"/>
      <point x="331" y="186"/>
      <point x="306" y="184"/>
      <point x="296" y="179" type="qcurve" smooth="yes"/>
      <point x="264" y="161"/>
      <point x="264" y="120" type="qcurve" smooth="yes"/>
      <point x="264" y="-118" type="line" smooth="yes"/>
      <point x="264" y="-206"/>
      <point x="202" y="-245" type="qcurve" smooth="yes"/>
      <point x="176" y="-260"/>
      <point x="110" y="-275"/>
      <point x="65" y="-277"/>
      <point x="25" y="-277" type="qcurve"/>
      <point x="25" y="-187" type="line"/>
      <point x="43" y="-184"/>
      <point x="75" y="-187"/>
      <point x="113" y="-181"/>
      <point x="127" y="-171" type="qcurve" smooth="yes"/>
      <point x="153" y="-160"/>
      <point x="153" y="-113" type="qcurve" smooth="yes"/>
      <point x="153" y="136" type="line" smooth="yes"/>
      <point x="153" y="194"/>
      <point x="180" y="221" type="qcurve" smooth="yes"/>
      <point x="184" y="226"/>
      <point x="194" y="234"/>
      <point x="202" y="240"/>
      <point x="218" y="245"/>
      <point x="226" y="247"/>
      <point x="246" y="252"/>
      <point x="249" y="253" type="qcurve"/>
      <point x="195" y="263"/>
      <point x="180" y="284" type="qcurve"/>
      <point x="153" y="311"/>
      <point x="153" y="364" type="qcurve" smooth="yes"/>
      <point x="153" y="619" type="line" smooth="yes"/>
      <point x="153" y="670"/>
      <point x="127" y="684" type="qcurve" smooth="yes"/>
      <point x="116" y="689"/>
      <point x="87" y="694"/>
      <point x="68" y="695"/>
      <point x="30" y="694"/>
      <point x="25" y="694" type="qcurve"/>
      <point x="25" y="784" type="line"/>
      <point x="32" y="784"/>
      <point x="76" y="785"/>
      <point x="96" y="784"/>
      <point x="134" y="782"/>
      <point x="158" y="776"/>
      <point x="189" y="766"/>
      <point x="202" y="758" type="qcurve" smooth="yes"/>
      <point x="264" y="719"/>
      <point x="264" y="624" type="qcurve" smooth="yes"/>
      <point x="264" y="381" type="line" smooth="yes"/>
      <point x="264" y="343"/>
      <point x="302" y="328" type="qcurve" smooth="yes"/>
      <point x="312" y="323"/>
      <point x="332" y="320"/>
      <point x="372" y="322"/>
      <point x="376" y="322" type="qcurve"/>
      <point x="376" y="184" type="line"/>
      <point x="371" y="184"/>
      <point x="331" y="186"/>
      <point x="306" y="184"/>
      <point x="296" y="179" type="qcurve" smooth="yes"/>
      <point x="264" y="161"/>
      <point x="264" y="120" type="qcurve" smooth="yes"/>
      <point x="264" y="-118" type="line" smooth="yes"/>
      <point x="264" y="-206"/>
      <point x="202" y="-245" type="qcurve" smooth="yes"/>
      <point x="176" y="-260"/>
      <point x="110" y="-275"/>
      <point x="65" y="-277"/>
      <point x="25" y="-277" type="qcurve"/>
      <point x="25" y="-187" type="line"/>
      <point x="43" y="-184"/>
      <point x="75" y="-187"/>
      <point x="113" y="-181"/>
      <point x="127" y="-171" type="qcurve" smooth="yes"/>
      <point x="153" y="-160"/>
      <point x="153" y="-113" type="qcurve" smooth="yes"/>
      <point x="153" y="136" type="line" smooth="yes"/>
      <point x="153" y="194"/>
      <point x="180" y="221" type="qcurve" smooth="yes"/>
      <point x="184" y="226"/>
      <point x="194" y="234"/>
      <point x="202" y="240"/>
      <point x="218" y="245"/>
      <point x="226" y="247"/>
      <point x="246" y="252"/>
      <point x="249" y="253" type="qcurve"/>
      <point x="195" y="263"/>
      <point x="180" y="284" type="qcurve"/>
      <point x="153" y="311"/>
      <point x="153" y="364" type="qcurve" smooth="yes"/>
      <point x="153" y="619" type="line" smooth="yes"/>
      <point x="153" y="670"/>
      <point x="127" y="684" type="qcurve" smooth="yes"/>
      <point x="116" y="689"/>
      <point x="87" y="694"/>
      <point x="68" y="695"/>
      <point x="30" y="694"/>
      <point x="25" y="694" type="qcurve"/>
      <point x="25" y="784" type="line"/>
      <point x="32" y="784"/>
      <point x="76" y="785"/>
      <point x="96" y="784"/>
      <point x="134" y="782"/>
      <point x="158" y="776"/>
      <point x="189" y="766"/>
      <point x="202" y="758" type="qcurve" smooth="yes"/>
      <point x="264" y="719"/>
      <point x="264" y="624" type="qcurve" smooth="yes"/>
      <point x="264" y="381" type="line" smooth="yes"/>
      <point x="264" y="343"/>
      <point x="302" y="328" type="qcurve" smooth="yes"/>
      <point x="312" y="323"/>
      <point x="332" y="320"/>
      <point x="372" y="322"/>
      <point x="376" y="322" type="qcurve"/>
      <point x="376" y="184" type="line"/>
      <point x="371" y="184"/>
      <point x="331" y="186"/>
      <point x="306" y="184"/>
      <point x="296" y="179" type="qcurve" smooth="yes"/>
      <point x="264" y="161"/>
      <point x="264" y="120" type="qcurve" smooth="yes"/>
      <point x="264" y="-118" type="line" smooth="yes"/>
      <point x="264" y="-206"/>
      <point x="202" y="-245" type="qcurve" smooth="yes"/>
      <point x="176" y="-260"/>
      <point x="110" y="-275"/>
      <point x="65" y="-277"/>
      <point x="25" y="-277" type="qcurve"/>
      <point x="25" y="-187" type="line"/>
      <point x="43" y="-184"/>
      <point x="75" y="-187"/>
      <point x="113" y="-181"/>
      <point x="127" y="-171" type="qcurve" smooth="yes"/>
      <point x="153" y="-160"/>
      <point x="153" y="-113" type="qcurve" smooth="yes"/>
      <point x="153" y="136" type="line" smooth="yes"/>
      <point x="153" y="194"/>
      <point x="180" y="221" type="qcurve" smooth="yes"/>
      <point x="184" y="226"/>
      <point x="194" y="234"/>
      <point x="202" y="240"/>
      <point x="218" y="245"/>
      <point x="226" y="247"/>
      <point x="246" y="252"/>
      <point x="249" y="253" type="qcurve"/>
      <point x="195" y="263"/>
      <point x="180" y="284" type="qcurve"/>
      <point x="153" y="311"/>
      <point x="153" y="364" type="qcurve" smooth="yes"/>
      <point x="153" y="619" type="line" smooth="yes"/>
      <point x="153" y="670"/>
      <point x="127" y="684" type="qcurve" smooth="yes"/>
      <point x="116" y="689"/>
      <point x="87" y="694"/>
      <point x="68" y="695"/>
      <point x="30" y="694"/>
    </contour>
  </outline>
</glyph>
<glyph name="asciitilde" format="2">
  <advance width="672"/>
  <unicode hex="007E"/>
  <outline>
    <contour>
      <point x="577" y="438" type="qcurve" smooth="yes"/>
      <point x="592" y="446"/>
      <point x="620" y="476"/>
      <point x="634" y="496"/>
      <point x="647" y="518" type="qcurve"/>
      <point x="633" y="392"/>
      <point x="592" y="333" type="qcurve" smooth="yes"/>
      <point x="572" y="306"/>
      <point x="509" y="280"/>
      <point x="476" y="284" type="qcurve" smooth="yes"/>
      <point x="426" y="292"/>
      <point x="218" y="341"/>
      <point x="162" y="349" type="qcurve" smooth="yes"/>
      <point x="158" y="349"/>
      <point x="126" y="351"/>
      <point x="106" y="349"/>
      <point x="99" y="344" type="qcurve" smooth="yes"/>
      <point x="52" y="324"/>
      <point x="25" y="268" type="qcurve"/>
      <point x="25" y="384"/>
      <point x="83" y="450" type="qcurve" smooth="yes"/>
      <point x="126" y="500"/>
      <point x="194" y="492" type="qcurve" smooth="yes"/>
      <point x="254" y="486"/>
      <point x="467" y="439"/>
      <point x="508" y="433" type="qcurve" smooth="yes"/>
      <point x="547" y="424"/>
      <point x="577" y="438" type="qcurve" smooth="yes"/>
      <point x="592" y="446"/>
      <point x="620" y="476"/>
      <point x="634" y="496"/>
      <point x="647" y="518" type="qcurve"/>
      <point x="633" y="392"/>
      <point x="592" y="333" type="qcurve" smooth="yes"/>
      <point x="572" y="306"/>
      <point x="509" y="280"/>
      <point x="476" y="284" type="qcurve" smooth="yes"/>
      <point x="426" y="292"/>
      <point x="218" y="341"/>
      <point x="162" y="349" type="qcurve" smooth="yes"/>
      <point x="158" y="349"/>
      <point x="126" y="351"/>
      <point x="106" y="349"/>
      <point x="99" y="344" type="qcurve" smooth="yes"/>
      <point x="52" y="324"/>
      <point x="25" y="268" type="qcurve"/>
      <point x="25" y="384"/>
      <point x="83" y="450" type="qcurve" smooth="yes"/>
      <point x="126" y="500"/>
      <point x="194" y="492" type="qcurve" smooth="yes"/>
      <point x="254" y="486"/>
      <point x="467" y="439"/>
      <point x="508" y="433" type="qcurve" smooth="yes"/>
      <point x="547" y="424"/>
      <point x="577" y="438" type="qcurve" smooth="yes"/>
      <point x="592" y="446"/>
      <point x="620" y="476"/>
      <point x="634" y="496"/>
      <point x="647" y="518" type="qcurve"/>
      <point x="633" y="392"/>
      <point x="592" y="333" type="qcurve" smooth="yes"/>
      <point x="572" y="306"/>
      <point x="509" y="280"/>
      <point x="476" y="284" type="qcurve" smooth="yes"/>
      <point x="426" y="292"/>
      <point x="218" y="341"/>
      <point x="162" y="349" type="qcurve" smooth="yes"/>
      <point x="158" y="349"/>
      <point x="126" y="351"/>
      <point x="106" y="349"/>
      <point x="99" y="344" type="qcurve" smooth="yes"/>
      <point x="52" y="324"/>
      <point x="25" y="268" type="qcurve"/>
      <point x="25" y="384"/>
      <point x="83" y="450" type="qcurve" smooth="yes"/>
      <point x="126" y="500"/>
      <point x="194" y="492" type="qcurve" smooth="yes"/>
      <point x="254" y="486"/>
      <point x="467" y="439"/>
      <point x="508" y="433" type="qcurve" smooth="yes"/>
      <point x="547" y="424"/>
    </contour>
  </outline>
</glyph>
<glyph name="yen" format="2">
  <advance width="675"/>
  <unicode hex="00A5"/>
  <outline>
    <contour>
      <point x="228" y="659" type="line"/>
      <point x="228" y="654"/>
      <point x="234" y="628"/>
      <point x="255" y="571"/>
      <point x="296" y="476"/>
      <point x="332" y="404" type="qcurve"/>
      <point x="371" y="482"/>
      <point x="413" y="576"/>
      <point x="432" y="629"/>
      <point x="435" y="651"/>
      <point x="434" y="659" type="qcurve"/>
      <point x="650" y="659" type="line"/>
      <point x="644" y="655"/>
      <point x="634" y="646"/>
      <point x="616" y="617"/>
      <point x="587" y="565"/>
      <point x="539" y="474"/>
      <point x="468" y="335"/>
      <point x="418" y="236" type="qcurve"/>
      <point x="418" y="199" type="line"/>
      <point x="531" y="199" type="line"/>
      <point x="531" y="124" type="line"/>
      <point x="420" y="124" type="line"/>
      <point x="422" y="83"/>
      <point x="424" y="35"/>
      <point x="426" y="22" type="qcurve" smooth="yes"/>
      <point x="428" y="6"/>
      <point x="430" y="0" type="qcurve"/>
      <point x="245" y="0" type="line"/>
      <point x="246" y="6"/>
      <point x="248" y="22" type="qcurve" smooth="yes"/>
      <point x="250" y="35"/>
      <point x="252" y="83"/>
      <point x="254" y="124" type="qcurve"/>
      <point x="166" y="124" type="line"/>
      <point x="166" y="199" type="line"/>
      <point x="256" y="199" type="line"/>
      <point x="256" y="234" type="line"/>
      <point x="245" y="258"/>
      <point x="220" y="307"/>
      <point x="208" y="331" type="qcurve" smooth="yes"/>
      <point x="171" y="407"/>
      <point x="117" y="514"/>
      <point x="80" y="584"/>
      <point x="57" y="625"/>
      <point x="41" y="647"/>
      <point x="30" y="655"/>
      <point x="25" y="659" type="qcurve"/>
    </contour>
  </outline>
</glyph>
<glyph name="section" format="2">
  <advance width="376"/>
  <unicode hex="00A7"/>
  <outline>
    <contour>
      <point x="216" y="636" type="qcurve" smooth="yes"/>
      <point x="242" y="636"/>
      <point x="309" y="622"/>
      <point x="334" y="610" type="qcurve"/>
      <point x="334" y="466" type="line"/>
      <point x="310" y="479"/>
      <point x="242" y="493"/>
      <point x="216" y="493" type="qcurve" smooth="yes"/>
      <point x="204" y="493"/>
      <point x="192" y="489"/>
      <point x="187" y="482"/>
      <point x="187" y="476"/>
      <point x="187" y="476" type="qcurve" smooth="yes"/>
      <point x="187" y="467"/>
      <point x="211" y="454"/>
      <point x="247" y="439"/>
      <point x="290" y="420"/>
      <point x="326" y="390"/>
      <point x="351" y="344"/>
      <point x="351" y="310" type="qcurve" smooth="yes"/>
      <point x="351" y="254"/>
      <point x="319" y="213" type="qcurve"/>
      <point x="329" y="200"/>
      <point x="340" y="170"/>
      <point x="340" y="150" type="qcurve" smooth="yes"/>
      <point x="340" y="120"/>
      <point x="314" y="67"/>
      <point x="267" y="26"/>
      <point x="201" y="1"/>
      <point x="160" y="1" type="qcurve" smooth="yes"/>
      <point x="134" y="1"/>
      <point x="66" y="15"/>
      <point x="42" y="28" type="qcurve"/>
      <point x="42" y="170" type="line"/>
      <point x="65" y="157"/>
      <point x="134" y="143"/>
      <point x="160" y="143" type="qcurve" smooth="yes"/>
      <point x="172" y="143"/>
      <point x="184" y="149"/>
      <point x="189" y="155"/>
      <point x="189" y="161"/>
      <point x="189" y="161" type="qcurve" smooth="yes"/>
      <point x="189" y="170"/>
      <point x="165" y="183"/>
      <point x="129" y="198"/>
      <point x="85" y="217"/>
      <point x="49" y="248"/>
      <point x="25" y="293"/>
      <point x="25" y="327" type="qcurve" smooth="yes"/>
      <point x="25" y="353"/>
      <point x="42" y="404"/>
      <point x="56" y="423" type="qcurve"/>
      <point x="47" y="436"/>
      <point x="36" y="468"/>
      <point x="36" y="488" type="qcurve" smooth="yes"/>
      <point x="36" y="517"/>
      <point x="61" y="571"/>
      <point x="107" y="611"/>
      <point x="175" y="636"/>
    </contour>
    <contour>
      <point x="215" y="310" type="qcurve" smooth="yes"/>
      <point x="215" y="323"/>
      <point x="189" y="341"/>
      <point x="169" y="350" type="qcurve"/>
      <point x="162" y="339"/>
      <point x="162" y="327" type="qcurve" smooth="yes"/>
      <point x="162" y="314"/>
      <point x="188" y="296"/>
      <point x="208" y="287" type="qcurve"/>
      <point x="215" y="298"/>
    </contour>
  </outline>
</glyph>
<glyph name="ordfeminine" format="2">
  <advance width="252"/>
  <unicode hex="00AA"/>
  <outline>
    <contour>
      <point x="118" y="721" type="qcurve" smooth="yes"/>
      <point x="128" y="721"/>
      <point x="143" y="718"/>
      <point x="150" y="715" type="qcurve" smooth="yes"/>
      <point x="227" y="715" type="line"/>
      <point x="227" y="525" type="line"/>
      <point x="148" y="525" type="line"/>
      <point x="134" y="519"/>
      <point x="118" y="519" type="qcurve" smooth="yes"/>
      <point x="99" y="519"/>
      <point x="65" y="533"/>
      <point x="40" y="559"/>
      <point x="25" y="596"/>
      <point x="25" y="620" type="qcurve" smooth="yes"/>
      <point x="25" y="644"/>
      <point x="40" y="681"/>
      <point x="65" y="707"/>
      <point x="99" y="721"/>
    </contour>
    <contour>
      <point x="126" y="601" type="qcurve" smooth="yes"/>
      <point x="131" y="601"/>
      <point x="141" y="602"/>
      <point x="146" y="603" type="qcurve"/>
      <point x="146" y="638" type="line"/>
      <point x="137" y="640"/>
      <point x="126" y="640" type="qcurve" smooth="yes"/>
      <point x="118" y="640"/>
      <point x="107" y="632"/>
      <point x="107" y="620" type="qcurve" smooth="yes"/>
      <point x="107" y="608"/>
      <point x="118" y="601"/>
    </contour>
  </outline>
</glyph>
<glyph name="logicalnot" format="2">
  <advance width="443"/>
  <unicode hex="00AC"/>
  <outline>
    <contour>
      <point x="418" y="480" type="line"/>
      <point x="418" y="229" type="line"/>
      <point x="268" y="229" type="line"/>
      <point x="268" y="330" type="line"/>
      <point x="25" y="330" type="line"/>
      <point x="25" y="480" type="line"/>
    </contour>
  </outline>
</glyph>
<glyph name="uni00AD" format="2">
  <advance width="415"/>
  <unicode hex="00AD"/>
  <outline>
    <contour>
      <point x="390" y="55" type="line"/>
      <point x="25" y="55" type="line"/>
      <point x="25" y="205" type="line"/>
      <point x="390" y="205" type="line"/>
    </contour>
  </outline>
</glyph>
<glyph name="macron" format="2">
  <advance width="393"/>
  <unicode hex="00AF"/>
  <outline>
    <contour>
      <point x="368" y="545" type="line"/>
      <point x="25" y="545" type="line"/>
      <point x="25" y="695" type="line"/>
      <point x="368" y="695" type="line"/>
    </contour>
  </outline>
</glyph>
<glyph name="uni00B2" format="2">
  <advance width="332"/>
  <unicode hex="00B2"/>
  <outline>
    <contour>
      <point x="106" y="726" type="qcurve" smooth="yes"/>
      <point x="159" y="733"/>
      <point x="201" y="728" type="qcurve" smooth="yes"/>
      <point x="247" y="721"/>
      <point x="269" y="700" type="qcurve" smooth="yes"/>
      <point x="285" y="687"/>
      <point x="297" y="646"/>
      <point x="292" y="626" type="qcurve" smooth="yes"/>
      <point x="285" y="600"/>
      <point x="257" y="574" type="qcurve" smooth="yes"/>
      <point x="225" y="543"/>
      <point x="170" y="518" type="qcurve"/>
      <point x="267" y="518"/>
      <point x="267" y="518" type="qcurve" smooth="yes"/>
      <point x="279" y="518"/>
      <point x="302" y="532"/>
      <point x="307" y="543" type="qcurve"/>
      <point x="307" y="442" type="line"/>
      <point x="25" y="442" type="line"/>
      <point x="25" y="518" type="line"/>
      <point x="83" y="542"/>
      <point x="112" y="560" type="qcurve" smooth="yes"/>
      <point x="142" y="578"/>
      <point x="154" y="598" type="qcurve" smooth="yes"/>
      <point x="169" y="620"/>
      <point x="158" y="640" type="qcurve" smooth="yes"/>
      <point x="150" y="654"/>
      <point x="128" y="657" type="qcurve" smooth="yes"/>
      <point x="74" y="665"/>
      <point x="27" y="633" type="qcurve"/>
      <point x="27" y="679"/>
      <point x="27" y="702" type="qcurve"/>
      <point x="55" y="718"/>
    </contour>
  </outline>
</glyph>
<glyph name="uni00B3" format="2">
  <advance width="336"/>
  <unicode hex="00B3"/>
  <outline>
    <contour>
      <point x="37" y="642" type="qcurve"/>
      <point x="37" y="716" type="line"/>
      <point x="82" y="734"/>
      <point x="144" y="736" type="qcurve" smooth="yes"/>
      <point x="196" y="738"/>
      <point x="233" y="729" type="qcurve" smooth="yes"/>
      <point x="266" y="721"/>
      <point x="283" y="702" type="qcurve" smooth="yes"/>
      <point x="293" y="690"/>
      <point x="297" y="656"/>
      <point x="291" y="641" type="qcurve" smooth="yes"/>
      <point x="283" y="619"/>
      <point x="256" y="606" type="qcurve" smooth="yes"/>
      <point x="247" y="601"/>
      <point x="219" y="595" type="qcurve" smooth="yes"/>
      <point x="219" y="593"/>
      <point x="219" y="592" type="qcurve" smooth="yes"/>
      <point x="243" y="591"/>
      <point x="281" y="582"/>
      <point x="295" y="569" type="qcurve" smooth="yes"/>
      <point x="311" y="553"/>
      <point x="312" y="504"/>
      <point x="296" y="487" type="qcurve" smooth="yes"/>
      <point x="277" y="464"/>
      <point x="239" y="452" type="qcurve" smooth="yes"/>
      <point x="196" y="439"/>
      <point x="138" y="439" type="qcurve" smooth="yes"/>
      <point x="68" y="440"/>
      <point x="25" y="456" type="qcurve"/>
      <point x="25" y="532" type="line"/>
      <point x="68" y="503"/>
      <point x="136" y="505" type="qcurve" smooth="yes"/>
      <point x="137" y="505"/>
      <point x="147" y="506"/>
      <point x="151" y="506"/>
      <point x="159" y="508"/>
      <point x="164" y="510"/>
      <point x="170" y="512"/>
      <point x="173" y="514" type="qcurve" smooth="yes"/>
      <point x="182" y="520"/>
      <point x="183" y="546"/>
      <point x="173" y="552" type="qcurve" smooth="yes"/>
      <point x="163" y="559"/>
      <point x="142" y="560" type="qcurve" smooth="yes"/>
      <point x="142" y="560"/>
      <point x="83" y="560" type="qcurve"/>
      <point x="83" y="614" type="line"/>
      <point x="137" y="614"/>
      <point x="137" y="614" type="qcurve"/>
      <point x="137" y="614"/>
      <point x="139" y="614" type="qcurve" smooth="yes"/>
      <point x="164" y="616"/>
      <point x="174" y="623" type="qcurve" smooth="yes"/>
      <point x="182" y="629"/>
      <point x="185" y="650"/>
      <point x="178" y="658" type="qcurve" smooth="yes"/>
      <point x="177" y="659"/>
      <point x="173" y="662"/>
      <point x="168" y="664"/>
      <point x="165" y="664"/>
      <point x="159" y="666"/>
      <point x="157" y="666"/>
      <point x="149" y="667"/>
      <point x="148" y="667" type="qcurve" smooth="yes"/>
      <point x="86" y="670"/>
    </contour>
  </outline>
</glyph>
<glyph name="mu" format="2">
  <advance width="900"/>
  <unicode hex="00B5"/>
  <outline>
    <contour>
      <point x="70" y="720" type="line"/>
      <point x="328" y="721" type="line"/>
      <point x="328" y="-250" type="line"/>
      <point x="70" y="-250" type="line"/>
      <point x="70" y="720" type="line"/>
      <point x="328" y="721" type="line"/>
      <point x="328" y="-250" type="line"/>
      <point x="70" y="-250" type="line"/>
      <point x="70" y="720" type="line"/>
      <point x="328" y="721" type="line"/>
      <point x="328" y="-250" type="line"/>
      <point x="70" y="-250" type="line"/>
    </contour>
    <contour>
      <point x="25" y="721" type="qcurve"/>
      <point x="26" y="720"/>
      <point x="187" y="721" type="qcurve" smooth="yes"/>
      <point x="348" y="721" type="line"/>
      <point x="328" y="698"/>
      <point x="328" y="641" type="qcurve" smooth="yes"/>
      <point x="328" y="345" type="line" smooth="yes"/>
      <point x="328" y="282"/>
      <point x="366" y="253" type="qcurve" smooth="yes"/>
      <point x="409" y="219"/>
      <point x="488" y="226" type="qcurve" smooth="yes"/>
      <point x="546" y="230"/>
      <point x="571" y="272" type="qcurve" smooth="yes"/>
      <point x="588" y="301"/>
      <point x="588" y="359" type="qcurve" smooth="yes"/>
      <point x="588" y="406"/>
      <point x="588" y="595"/>
      <point x="587" y="641" type="qcurve" smooth="yes"/>
      <point x="587" y="699"/>
      <point x="566" y="721" type="qcurve"/>
      <point x="721" y="720"/>
      <point x="875" y="721" type="qcurve"/>
      <point x="829" y="693"/>
      <point x="829" y="637" type="qcurve" smooth="yes"/>
      <point x="829" y="330" type="line" smooth="yes"/>
      <point x="829" y="228"/>
      <point x="776" y="165" type="qcurve" smooth="yes"/>
      <point x="725" y="106"/>
      <point x="628" y="85" type="qcurve" smooth="yes"/>
      <point x="532" y="63"/>
      <point x="392" y="69" type="qcurve" smooth="yes"/>
      <point x="232" y="77"/>
      <point x="149" y="148" type="qcurve" smooth="yes"/>
      <point x="72" y="212"/>
      <point x="70" y="326" type="qcurve" smooth="yes"/>
      <point x="70" y="326"/>
      <point x="70" y="483" type="qcurve" smooth="yes"/>
      <point x="70" y="641" type="line" smooth="yes"/>
      <point x="69" y="694"/>
    </contour>
  </outline>
</glyph>
<glyph name="periodcentered" format="2">
  <advance width="276"/>
  <unicode hex="00B7"/>
  <outline>
    <contour>
      <point x="138" y="120" type="qcurve" smooth="yes"/>
      <point x="88" y="120"/>
      <point x="25" y="173"/>
      <point x="25" y="219" type="qcurve" smooth="yes"/>
      <point x="25" y="241"/>
      <point x="40" y="277"/>
      <point x="69" y="304"/>
      <point x="111" y="319"/>
      <point x="138" y="319" type="qcurve" smooth="yes"/>
      <point x="192" y="319"/>
      <point x="251" y="263"/>
      <point x="251" y="219" type="qcurve" smooth="yes"/>
      <point x="251" y="197"/>
      <point x="233" y="160"/>
      <point x="203" y="134"/>
      <point x="162" y="120"/>
    </contour>
  </outline>
</glyph>
<glyph name="cedilla" format="2">
  <advance width="256"/>
  <unicode hex="00B8"/>
  <outline>
    <contour>
      <point x="25" y="-156" type="qcurve"/>
      <point x="25" y="-223" type="line"/>
      <point x="75" y="-254"/>
      <point x="145" y="-249" type="qcurve" smooth="yes"/>
      <point x="196" y="-244"/>
      <point x="216" y="-223" type="qcurve" smooth="yes"/>
      <point x="230" y="-208"/>
      <point x="232" y="-164"/>
      <point x="222" y="-147" type="qcurve" smooth="yes"/>
      <point x="216" y="-135"/>
      <point x="199" y="-114"/>
      <point x="176" y="-90"/>
      <point x="170" y="-82" type="qcurve" smooth="yes"/>
      <point x="156" y="-62"/>
      <point x="156" y="-51" type="qcurve"/>
      <point x="69" y="-51" type="line"/>
      <point x="69" y="-63"/>
      <point x="76" y="-80" type="qcurve" smooth="yes"/>
      <point x="83" y="-91"/>
      <point x="118" y="-128"/>
      <point x="124" y="-139" type="qcurve" smooth="yes"/>
      <point x="130" y="-146"/>
      <point x="133" y="-162"/>
      <point x="128" y="-171" type="qcurve" smooth="yes"/>
      <point x="122" y="-186"/>
      <point x="96" y="-186" type="qcurve" smooth="yes"/>
      <point x="58" y="-186"/>
    </contour>
    <contour>
      <point x="25" y="-156" type="qcurve"/>
      <point x="25" y="-223" type="line"/>
      <point x="75" y="-254"/>
      <point x="145" y="-249" type="qcurve" smooth="yes"/>
      <point x="196" y="-244"/>
      <point x="216" y="-223" type="qcurve" smooth="yes"/>
      <point x="230" y="-208"/>
      <point x="232" y="-164"/>
      <point x="222" y="-147" type="qcurve" smooth="yes"/>
      <point x="216" y="-135"/>
      <point x="199" y="-114"/>
      <point x="176" y="-90"/>
      <point x="170" y="-82" type="qcurve" smooth="yes"/>
      <point x="156" y="-62"/>
      <point x="156" y="-51" type="qcurve"/>
      <point x="69" y="-51" type="line"/>
      <point x="69" y="-63"/>
      <point x="76" y="-80" type="qcurve" smooth="yes"/>
      <point x="83" y="-91"/>
      <point x="118" y="-128"/>
      <point x="124" y="-139" type="qcurve" smooth="yes"/>
      <point x="130" y="-146"/>
      <point x="133" y="-162"/>
      <point x="128" y="-171" type="qcurve" smooth="yes"/>
      <point x="122" y="-186"/>
      <point x="96" y="-186" type="qcurve" smooth="yes"/>
      <point x="58" y="-186"/>
    </contour>
    <contour>
      <point x="25" y="-156" type="qcurve"/>
      <point x="25" y="-223" type="line"/>
      <point x="75" y="-254"/>
      <point x="145" y="-249" type="qcurve" smooth="yes"/>
      <point x="196" y="-244"/>
      <point x="216" y="-223" type="qcurve" smooth="yes"/>
      <point x="230" y="-208"/>
      <point x="232" y="-164"/>
      <point x="222" y="-147" type="qcurve" smooth="yes"/>
      <point x="216" y="-135"/>
      <point x="199" y="-114"/>
      <point x="176" y="-90"/>
      <point x="170" y="-82" type="qcurve" smooth="yes"/>
      <point x="156" y="-62"/>
      <point x="156" y="-51" type="qcurve"/>
      <point x="69" y="-51" type="line"/>
      <point x="69" y="-63"/>
      <point x="76" y="-80" type="qcurve" smooth="yes"/>
      <point x="83" y="-91"/>
      <point x="118" y="-128"/>
      <point x="124" y="-139" type="qcurve" smooth="yes"/>
      <point x="130" y="-146"/>
      <point x="133" y="-162"/>
      <point x="128" y="-171" type="qcurve" smooth="yes"/>
      <point x="122" y="-186"/>
      <point x="96" y="-186" type="qcurve" smooth="yes"/>
      <point x="58" y="-186"/>
    </contour>
  </outline>
</glyph>
<glyph name="uni00B9" format="2">
  <advance width="191"/>
  <unicode hex="00B9"/>
  <outline>
    <contour>
      <point x="94" y="718" type="qcurve" smooth="yes"/>
      <point x="96" y="719"/>
      <point x="99" y="719" type="qcurve" smooth="yes"/>
      <point x="151" y="719" type="line"/>
      <point x="151" y="549" type="line" smooth="yes"/>
      <point x="151" y="531"/>
      <point x="166" y="523" type="qcurve"/>
      <point x="166" y="523"/>
      <point x="57" y="523" type="qcurve"/>
      <point x="72" y="531"/>
      <point x="72" y="549" type="qcurve" smooth="yes"/>
      <point x="72" y="668" type="line"/>
      <point x="51" y="661"/>
      <point x="25" y="652" type="qcurve"/>
      <point x="25" y="687" type="line"/>
      <point x="61" y="703"/>
    </contour>
  </outline>
</glyph>
<glyph name="onehalf" format="2">
  <advance width="599"/>
  <unicode hex="00BD"/>
  <outline>
    <contour>
      <point x="411" y="341" type="qcurve" smooth="yes"/>
      <point x="454" y="347"/>
      <point x="488" y="342" type="qcurve" smooth="yes"/>
      <point x="525" y="337"/>
      <point x="544" y="320" type="qcurve" smooth="yes"/>
      <point x="556" y="309"/>
      <point x="566" y="276"/>
      <point x="562" y="260" type="qcurve" smooth="yes"/>
      <point x="556" y="238"/>
      <point x="534" y="217" type="qcurve" smooth="yes"/>
      <point x="507" y="193"/>
      <point x="463" y="173" type="qcurve"/>
      <point x="542" y="173"/>
      <point x="542" y="173" type="qcurve" smooth="yes"/>
      <point x="552" y="173"/>
      <point x="570" y="183"/>
      <point x="574" y="193" type="qcurve"/>
      <point x="574" y="110" type="line"/>
      <point x="346" y="110" type="line"/>
      <point x="346" y="172" type="line"/>
      <point x="393" y="192"/>
      <point x="416" y="206" type="qcurve" smooth="yes"/>
      <point x="440" y="221"/>
      <point x="450" y="237" type="qcurve" smooth="yes"/>
      <point x="462" y="255"/>
      <point x="453" y="271" type="qcurve" smooth="yes"/>
      <point x="447" y="282"/>
      <point x="429" y="285" type="qcurve" smooth="yes"/>
      <point x="385" y="291"/>
      <point x="347" y="266" type="qcurve"/>
      <point x="347" y="303"/>
      <point x="347" y="321" type="qcurve"/>
      <point x="370" y="334"/>
    </contour>
    <contour>
      <point x="325" y="680" type="qcurve"/>
      <point x="409" y="680" type="line"/>
      <point x="379" y="595"/>
      <point x="305" y="389" type="qcurve" smooth="yes"/>
      <point x="231" y="183"/>
      <point x="190" y="71" type="qcurve"/>
      <point x="105" y="71" type="line"/>
      <point x="323" y="674"/>
      <point x="325" y="680" type="qcurve"/>
      <point x="409" y="680" type="line"/>
      <point x="379" y="595"/>
      <point x="305" y="389" type="qcurve" smooth="yes"/>
      <point x="231" y="183"/>
      <point x="190" y="71" type="qcurve"/>
      <point x="105" y="71" type="line"/>
      <point x="323" y="674"/>
      <point x="325" y="680" type="qcurve"/>
      <point x="409" y="680" type="line"/>
      <point x="379" y="595"/>
      <point x="305" y="389" type="qcurve" smooth="yes"/>
      <point x="231" y="183"/>
      <point x="190" y="71" type="qcurve"/>
      <point x="105" y="71" type="line"/>
      <point x="323" y="674"/>
    </contour>
    <contour>
      <point x="94" y="635" type="qcurve" smooth="yes"/>
      <point x="96" y="636"/>
      <point x="99" y="636" type="qcurve" smooth="yes"/>
      <point x="151" y="636" type="line"/>
      <point x="151" y="466" type="line" smooth="yes"/>
      <point x="151" y="448"/>
      <point x="166" y="439" type="qcurve"/>
      <point x="166" y="439"/>
      <point x="57" y="439" type="qcurve"/>
      <point x="72" y="448"/>
      <point x="72" y="466" type="qcurve" smooth="yes"/>
      <point x="72" y="585" type="line"/>
      <point x="51" y="578"/>
      <point x="25" y="569" type="qcurve"/>
      <point x="25" y="604" type="line"/>
      <point x="61" y="620"/>
    </contour>
  </outline>
</glyph>
<glyph name="threequarters" format="2">
  <advance width="627"/>
  <unicode hex="00BE"/>
  <outline>
    <contour>
      <point x="33" y="588" type="qcurve"/>
      <point x="33" y="641" type="line"/>
      <point x="67" y="655"/>
      <point x="112" y="657" type="qcurve" smooth="yes"/>
      <point x="150" y="658"/>
      <point x="177" y="651" type="qcurve" smooth="yes"/>
      <point x="201" y="645"/>
      <point x="213" y="631" type="qcurve" smooth="yes"/>
      <point x="220" y="623"/>
      <point x="224" y="598"/>
      <point x="219" y="587" type="qcurve" smooth="yes"/>
      <point x="213" y="571"/>
      <point x="193" y="561" type="qcurve" smooth="yes"/>
      <point x="187" y="558"/>
      <point x="167" y="553" type="qcurve" smooth="yes"/>
      <point x="167" y="552"/>
      <point x="166" y="552" type="qcurve"/>
      <point x="184" y="551"/>
      <point x="212" y="544"/>
      <point x="222" y="534" type="qcurve" smooth="yes"/>
      <point x="233" y="523"/>
      <point x="234" y="487"/>
      <point x="223" y="475" type="qcurve" smooth="yes"/>
      <point x="209" y="458"/>
      <point x="181" y="449" type="qcurve" smooth="yes"/>
      <point x="150" y="440"/>
      <point x="107" y="440" type="qcurve" smooth="yes"/>
      <point x="56" y="440"/>
      <point x="25" y="452" type="qcurve"/>
      <point x="25" y="508" type="line"/>
      <point x="56" y="487"/>
      <point x="106" y="488" type="qcurve" smooth="yes"/>
      <point x="107" y="488"/>
      <point x="114" y="489"/>
      <point x="117" y="489"/>
      <point x="122" y="490"/>
      <point x="126" y="491"/>
      <point x="131" y="493"/>
      <point x="133" y="494" type="qcurve" smooth="yes"/>
      <point x="140" y="498"/>
      <point x="140" y="518"/>
      <point x="133" y="522" type="qcurve" smooth="yes"/>
      <point x="126" y="527"/>
      <point x="110" y="528" type="qcurve" smooth="yes"/>
      <point x="110" y="528"/>
      <point x="67" y="528" type="qcurve"/>
      <point x="67" y="567" type="line"/>
      <point x="106" y="567"/>
      <point x="106" y="567" type="qcurve" smooth="yes"/>
      <point x="107" y="567"/>
      <point x="108" y="567" type="qcurve" smooth="yes"/>
      <point x="126" y="569"/>
      <point x="134" y="574" type="qcurve" smooth="yes"/>
      <point x="140" y="578"/>
      <point x="142" y="594"/>
      <point x="137" y="599" type="qcurve" smooth="yes"/>
      <point x="136" y="600"/>
      <point x="133" y="602"/>
      <point x="129" y="603"/>
      <point x="127" y="604"/>
      <point x="122" y="605"/>
      <point x="121" y="605"/>
      <point x="115" y="606"/>
      <point x="115" y="606" type="qcurve"/>
      <point x="69" y="608"/>
    </contour>
    <contour>
      <point x="452" y="338" type="qcurve"/>
      <point x="563" y="338" type="line"/>
      <point x="563" y="212" type="line"/>
      <point x="569" y="212"/>
      <point x="595" y="212"/>
      <point x="602" y="212" type="qcurve"/>
      <point x="602" y="159" type="line"/>
      <point x="563" y="159" type="line"/>
      <point x="563" y="140" type="line" smooth="yes"/>
      <point x="564" y="120"/>
      <point x="579" y="110" type="qcurve"/>
      <point x="517" y="111"/>
      <point x="455" y="110" type="qcurve"/>
      <point x="471" y="120"/>
      <point x="471" y="140" type="qcurve" smooth="yes"/>
      <point x="471" y="140"/>
      <point x="471" y="159" type="qcurve"/>
      <point x="334" y="159" type="line"/>
      <point x="334" y="194"/>
      <point x="334" y="212" type="qcurve"/>
      <point x="392" y="273"/>
    </contour>
    <contour>
      <point x="471" y="270" type="line"/>
      <point x="415" y="212" type="line"/>
      <point x="425" y="212"/>
      <point x="461" y="212"/>
      <point x="471" y="212" type="qcurve"/>
    </contour>
    <contour>
      <point x="358" y="680" type="qcurve"/>
      <point x="442" y="680" type="line"/>
      <point x="412" y="595"/>
      <point x="264" y="183"/>
      <point x="223" y="71" type="qcurve"/>
      <point x="138" y="71" type="line"/>
      <point x="356" y="674"/>
      <point x="358" y="680" type="qcurve"/>
      <point x="442" y="680" type="line"/>
      <point x="412" y="595"/>
      <point x="264" y="183"/>
      <point x="223" y="71" type="qcurve"/>
      <point x="138" y="71" type="line"/>
      <point x="356" y="674"/>
      <point x="358" y="680" type="qcurve"/>
      <point x="442" y="680" type="line"/>
      <point x="412" y="595"/>
      <point x="264" y="183"/>
      <point x="223" y="71" type="qcurve"/>
      <point x="138" y="71" type="line"/>
      <point x="356" y="674"/>
    </contour>
  </outline>
</glyph>
<glyph name="Agrave" format="2">
  <advance width="1134"/>
  <unicode hex="00C0"/>
  <outline>
    <contour>
      <point x="271" y="948" type="qcurve"/>
      <point x="577" y="948" type="line"/>
      <point x="579" y="940"/>
      <point x="589" y="912"/>
      <point x="592" y="904" type="qcurve" smooth="yes"/>
      <point x="680" y="750" type="line"/>
      <point x="502" y="750" type="line"/>
      <point x="455" y="788"/>
      <point x="291" y="932"/>
      <point x="271" y="948" type="qcurve"/>
      <point x="577" y="948" type="line"/>
      <point x="579" y="940"/>
      <point x="589" y="912"/>
      <point x="592" y="904" type="qcurve" smooth="yes"/>
      <point x="680" y="750" type="line"/>
      <point x="502" y="750" type="line"/>
      <point x="455" y="788"/>
      <point x="291" y="932"/>
      <point x="271" y="948" type="qcurve"/>
      <point x="577" y="948" type="line"/>
      <point x="579" y="940"/>
      <point x="589" y="912"/>
      <point x="592" y="904" type="qcurve" smooth="yes"/>
      <point x="680" y="750" type="line"/>
      <point x="502" y="750" type="line"/>
      <point x="455" y="788"/>
      <point x="291" y="932"/>
    </contour>
    <contour>
      <point x="664" y="274" type="line"/>
      <point x="566" y="455" type="line"/>
      <point x="460" y="255" type="line"/>
    </contour>
    <contour>
      <point x="386" y="120" type="line"/>
      <point x="385" y="118" type="line" smooth="yes"/>
      <point x="365" y="77"/>
      <point x="365" y="50" type="qcurve" smooth="yes"/>
      <point x="365" y="14"/>
      <point x="384" y="0" type="qcurve"/>
      <point x="25" y="0" type="line"/>
      <point x="89" y="53"/>
      <point x="159" y="187" type="qcurve" smooth="yes"/>
      <point x="380" y="597" type="line" smooth="yes"/>
      <point x="400" y="638"/>
      <point x="400" y="652" type="qcurve" smooth="yes"/>
      <point x="400" y="683"/>
      <point x="381" y="700" type="qcurve"/>
      <point x="700" y="700" type="line"/>
      <point x="975" y="187" type="line" smooth="yes"/>
      <point x="1045" y="53"/>
      <point x="1109" y="0" type="qcurve"/>
      <point x="750" y="0" type="line"/>
      <point x="769" y="14"/>
      <point x="769" y="50" type="qcurve" smooth="yes"/>
      <point x="769" y="80"/>
      <point x="748" y="118" type="qcurve" smooth="yes"/>
      <point x="730" y="151" type="line"/>
    </contour>
  </outline>
</glyph>
<glyph name="Ugrave" format="2">
  <advance width="984"/>
  <unicode hex="00D9"/>
  <outline>
    <contour>
      <point x="211" y="968" type="qcurve"/>
      <point x="517" y="968" type="line"/>
      <point x="519" y="960"/>
      <point x="529" y="932"/>
      <point x="532" y="924" type="qcurve" smooth="yes"/>
      <point x="620" y="770" type="line"/>
      <point x="442" y="770" type="line"/>
      <point x="395" y="808"/>
      <point x="231" y="951"/>
      <point x="211" y="968" type="qcurve"/>
      <point x="517" y="968" type="line"/>
      <point x="519" y="960"/>
      <point x="529" y="932"/>
      <point x="532" y="924" type="qcurve" smooth="yes"/>
      <point x="620" y="770" type="line"/>
      <point x="442" y="770" type="line"/>
      <point x="395" y="808"/>
      <point x="231" y="951"/>
      <point x="211" y="968" type="qcurve"/>
      <point x="517" y="968" type="line"/>
      <point x="519" y="960"/>
      <point x="529" y="932"/>
      <point x="532" y="924" type="qcurve" smooth="yes"/>
      <point x="620" y="770" type="line"/>
      <point x="442" y="770" type="line"/>
      <point x="395" y="808"/>
      <point x="231" y="951"/>
    </contour>
    <contour>
      <point x="25" y="700" type="qcurve"/>
      <point x="26" y="699"/>
      <point x="203" y="700" type="qcurve" smooth="yes"/>
      <point x="380" y="700" type="line"/>
      <point x="358" y="675"/>
      <point x="358" y="612" type="qcurve" smooth="yes"/>
      <point x="358" y="283" type="line" smooth="yes"/>
      <point x="358" y="213"/>
      <point x="400" y="180" type="qcurve" smooth="yes"/>
      <point x="447" y="143"/>
      <point x="534" y="150" type="qcurve" smooth="yes"/>
      <point x="597" y="155"/>
      <point x="625" y="202" type="qcurve" smooth="yes"/>
      <point x="644" y="234"/>
      <point x="644" y="298" type="qcurve" smooth="yes"/>
      <point x="644" y="350"/>
      <point x="644" y="560"/>
      <point x="643" y="612" type="qcurve" smooth="yes"/>
      <point x="643" y="676"/>
      <point x="619" y="700" type="qcurve"/>
      <point x="790" y="699"/>
      <point x="959" y="700" type="qcurve"/>
      <point x="909" y="669"/>
      <point x="909" y="607" type="qcurve" smooth="yes"/>
      <point x="909" y="266" type="line" smooth="yes"/>
      <point x="909" y="153"/>
      <point x="850" y="83" type="qcurve" smooth="yes"/>
      <point x="794" y="17"/>
      <point x="688" y="-6" type="qcurve" smooth="yes"/>
      <point x="582" y="-31"/>
      <point x="428" y="-24" type="qcurve" smooth="yes"/>
      <point x="252" y="-15"/>
      <point x="161" y="64" type="qcurve" smooth="yes"/>
      <point x="77" y="135"/>
      <point x="75" y="261" type="qcurve" smooth="yes"/>
      <point x="74" y="261"/>
      <point x="74" y="436" type="qcurve" smooth="yes"/>
      <point x="75" y="612" type="line" smooth="yes"/>
      <point x="73" y="670"/>
    </contour>
  </outline>
</glyph>
<glyph name="Yacute" format="2">
  <advance width="1095"/>
  <unicode hex="00DD"/>
  <outline>
    <contour>
      <point x="846" y="948" type="qcurve"/>
      <point x="540" y="948" type="line"/>
      <point x="538" y="940"/>
      <point x="528" y="912"/>
      <point x="525" y="904" type="qcurve" smooth="yes"/>
      <point x="437" y="750" type="line"/>
      <point x="615" y="750" type="line"/>
      <point x="662" y="788"/>
      <point x="826" y="931"/>
      <point x="846" y="948" type="qcurve"/>
      <point x="540" y="948" type="line"/>
      <point x="538" y="940"/>
      <point x="528" y="912"/>
      <point x="525" y="904" type="qcurve" smooth="yes"/>
      <point x="437" y="750" type="line"/>
      <point x="615" y="750" type="line"/>
      <point x="662" y="788"/>
      <point x="826" y="931"/>
      <point x="846" y="948" type="qcurve"/>
      <point x="540" y="948" type="line"/>
      <point x="538" y="940"/>
      <point x="528" y="912"/>
      <point x="525" y="904" type="qcurve" smooth="yes"/>
      <point x="437" y="750" type="line"/>
      <point x="615" y="750" type="line"/>
      <point x="662" y="788"/>
      <point x="826" y="931"/>
    </contour>
    <contour>
      <point x="411" y="237" type="line"/>
      <point x="110" y="629" type="line" smooth="yes"/>
      <point x="63" y="689"/>
      <point x="25" y="701" type="qcurve"/>
      <point x="405" y="701" type="line"/>
      <point x="393" y="690"/>
      <point x="393" y="673" type="qcurve" smooth="yes"/>
      <point x="393" y="655"/>
      <point x="415" y="629" type="qcurve" smooth="yes"/>
      <point x="547" y="457" type="line"/>
      <point x="680" y="629" type="line" smooth="yes"/>
      <point x="703" y="656"/>
      <point x="703" y="673" type="qcurve" smooth="yes"/>
      <point x="703" y="689"/>
      <point x="691" y="701" type="qcurve"/>
      <point x="1070" y="701" type="line"/>
      <point x="1049" y="693"/>
      <point x="997" y="648"/>
      <point x="985" y="629" type="qcurve" smooth="yes"/>
      <point x="683" y="237" type="line"/>
      <point x="683" y="215" type="line" smooth="yes"/>
      <point x="683" y="40"/>
      <point x="742" y="1" type="qcurve"/>
      <point x="352" y="1" type="line"/>
      <point x="387" y="23"/>
      <point x="411" y="130"/>
      <point x="411" y="215" type="qcurve" smooth="yes"/>
    </contour>
  </outline>
</glyph>
<glyph name="germandbls" format="2">
  <advance width="600"/>
  <unicode hex="00DF"/>
  <outline>
    <contour>
      <point x="192" y="349" type="qcurve" smooth="yes"/>
      <point x="192" y="283"/>
      <point x="193" y="184"/>
      <point x="194" y="111"/>
      <point x="196" y="60"/>
      <point x="197" y="44" type="qcurve" smooth="yes"/>
      <point x="200" y="5"/>
      <point x="203" y="0" type="qcurve"/>
      <point x="25" y="0" type="line"/>
      <point x="28" y="5"/>
      <point x="31" y="44" type="qcurve" smooth="yes"/>
      <point x="32" y="60"/>
      <point x="34" y="111"/>
      <point x="36" y="184"/>
      <point x="37" y="283"/>
      <point x="37" y="349" type="qcurve" smooth="yes"/>
      <point x="37" y="485" type="line" smooth="yes"/>
      <point x="37" y="590"/>
      <point x="168" y="707"/>
      <point x="296" y="707" type="qcurve" smooth="yes"/>
      <point x="356" y="707"/>
      <point x="444" y="682"/>
      <point x="503" y="639"/>
      <point x="533" y="579"/>
      <point x="533" y="544" type="qcurve" smooth="yes"/>
      <point x="533" y="502"/>
      <point x="492" y="425"/>
      <point x="447" y="399" type="qcurve"/>
      <point x="506" y="378"/>
      <point x="574" y="291"/>
      <point x="575" y="225" type="qcurve" smooth="yes"/>
      <point x="575" y="173"/>
      <point x="539" y="90"/>
      <point x="471" y="31"/>
      <point x="378" y="0"/>
      <point x="321" y="0" type="qcurve" smooth="yes"/>
      <point x="239" y="0" type="line"/>
      <point x="225" y="162" type="line"/>
      <point x="235" y="158"/>
      <point x="264" y="152"/>
      <point x="286" y="152" type="qcurve" smooth="yes"/>
      <point x="307" y="152"/>
      <point x="350" y="157"/>
      <point x="385" y="173"/>
      <point x="407" y="204"/>
      <point x="407" y="230" type="qcurve" smooth="yes"/>
      <point x="407" y="272"/>
      <point x="341" y="316"/>
      <point x="272" y="316" type="qcurve" smooth="yes"/>
      <point x="258" y="316"/>
      <point x="239" y="313"/>
      <point x="233" y="311" type="qcurve" smooth="yes"/>
      <point x="226" y="309"/>
      <point x="222" y="307" type="qcurve"/>
      <point x="222" y="453" type="line"/>
      <point x="234" y="451"/>
      <point x="256" y="448"/>
      <point x="265" y="448" type="qcurve" smooth="yes"/>
      <point x="296" y="448"/>
      <point x="337" y="460"/>
      <point x="362" y="479"/>
      <point x="372" y="505"/>
      <point x="371" y="519" type="qcurve" smooth="yes"/>
      <point x="370" y="533"/>
      <point x="349" y="554"/>
      <point x="321" y="568"/>
      <point x="288" y="575"/>
      <point x="275" y="575" type="qcurve" smooth="yes"/>
      <point x="242" y="573"/>
      <point x="193" y="541"/>
      <point x="193" y="503" type="qcurve" smooth="yes"/>
      <point x="193" y="474"/>
      <point x="192" y="391"/>
    </contour>
  </outline>
</glyph>
<glyph name="eacute" format="2">
  <advance width="839"/>
  <unicode hex="00E9"/>
  <outline>
    <contour>
      <point x="686" y="948" type="qcurve"/>
      <point x="380" y="948" type="line"/>
      <point x="378" y="940"/>
      <point x="368" y="912"/>
      <point x="365" y="904" type="qcurve" smooth="yes"/>
      <point x="277" y="750" type="line"/>
      <point x="455" y="750" type="line"/>
      <point x="502" y="788"/>
      <point x="666" y="931"/>
      <point x="686" y="948" type="qcurve"/>
      <point x="380" y="948" type="line"/>
      <point x="378" y="940"/>
      <point x="368" y="912"/>
      <point x="365" y="904" type="qcurve" smooth="yes"/>
      <point x="277" y="750" type="line"/>
      <point x="455" y="750" type="line"/>
      <point x="502" y="788"/>
      <point x="666" y="931"/>
      <point x="686" y="948" type="qcurve"/>
      <point x="380" y="948" type="line"/>
      <point x="378" y="940"/>
      <point x="368" y="912"/>
      <point x="365" y="904" type="qcurve" smooth="yes"/>
      <point x="277" y="750" type="line"/>
      <point x="455" y="750" type="line"/>
      <point x="502" y="788"/>
      <point x="666" y="931"/>
    </contour>
    <contour>
      <point x="25" y="701" type="qcurve"/>
      <point x="285" y="700"/>
      <point x="801" y="700" type="qcurve"/>
      <point x="802" y="664"/>
      <point x="802" y="526"/>
      <point x="802" y="490" type="qcurve"/>
      <point x="769" y="532"/>
      <point x="707" y="532" type="qcurve" smooth="yes"/>
      <point x="358" y="532" type="line"/>
      <point x="358" y="431" type="line"/>
      <point x="722" y="431" type="line"/>
      <point x="722" y="282" type="line"/>
      <point x="358" y="282" type="line"/>
      <point x="358" y="167" type="line"/>
      <point x="412" y="168"/>
      <point x="627" y="168"/>
      <point x="681" y="168" type="qcurve" smooth="yes"/>
      <point x="734" y="168"/>
      <point x="751" y="174" type="qcurve" smooth="yes"/>
      <point x="798" y="193"/>
      <point x="814" y="230" type="qcurve"/>
      <point x="814" y="0" type="line"/>
      <point x="25" y="0" type="line"/>
      <point x="75" y="31"/>
      <point x="75" y="91" type="qcurve" smooth="yes"/>
      <point x="75" y="606" type="line" smooth="yes"/>
      <point x="76" y="634"/>
      <point x="49" y="686"/>
    </contour>
  </outline>
</glyph>
<glyph name="divide" format="2">
  <advance width="503"/>
  <unicode hex="00F7"/>
  <outline>
    <contour>
      <point x="251" y="428" type="qcurve" smooth="yes"/>
      <point x="175" y="428"/>
      <point x="175" y="505" type="qcurve" smooth="yes"/>
      <point x="175" y="580"/>
      <point x="251" y="580" type="qcurve" smooth="yes"/>
      <point x="327" y="580"/>
      <point x="327" y="505" type="qcurve" smooth="yes"/>
      <point x="327" y="428"/>
    </contour>
    <contour>
      <point x="25" y="285" type="line"/>
      <point x="25" y="390" type="line"/>
      <point x="478" y="390" type="line"/>
      <point x="478" y="285" type="line"/>
    </contour>
    <contour>
      <point x="251" y="94" type="qcurve" smooth="yes"/>
      <point x="175" y="94"/>
      <point x="175" y="170" type="qcurve" smooth="yes"/>
      <point x="175" y="246"/>
      <point x="251" y="246" type="qcurve" smooth="yes"/>
      <point x="327" y="246"/>
      <point x="327" y="170" type="qcurve" smooth="yes"/>
      <point x="327" y="94"/>
    </contour>
  </outline>
</glyph>
<glyph name="Abreve" format="2">
  <advance width="1134"/>
  <unicode hex="0102"/>
  <outline>
    <contour>
      <point x="541" y="886" type="qcurve" smooth="yes"/>
      <point x="503" y="886"/>
      <point x="466" y="922"/>
      <point x="465" y="949" type="qcurve"/>
      <point x="316" y="949" type="line"/>
      <point x="317" y="949"/>
      <point x="316" y="948" type="qcurve" smooth="yes"/>
      <point x="317" y="905"/>
      <point x="346" y="834"/>
      <point x="375" y="807" type="qcurve" smooth="yes"/>
      <point x="403" y="781"/>
      <point x="445" y="766" type="qcurve" smooth="yes"/>
      <point x="486" y="751"/>
      <point x="541" y="751" type="qcurve" smooth="yes"/>
      <point x="649" y="751"/>
      <point x="707" y="806" type="qcurve" smooth="yes"/>
      <point x="766" y="861"/>
      <point x="766" y="948" type="qcurve" smooth="yes"/>
      <point x="766" y="949"/>
      <point x="766" y="949" type="qcurve"/>
      <point x="617" y="949" type="line"/>
      <point x="618" y="921"/>
      <point x="577" y="886"/>
    </contour>
    <contour>
      <point x="664" y="274" type="line"/>
      <point x="566" y="455" type="line"/>
      <point x="460" y="255" type="line"/>
    </contour>
    <contour>
      <point x="386" y="120" type="line"/>
      <point x="385" y="118" type="line" smooth="yes"/>
      <point x="365" y="77"/>
      <point x="365" y="50" type="qcurve" smooth="yes"/>
      <point x="365" y="14"/>
      <point x="384" y="0" type="qcurve"/>
      <point x="25" y="0" type="line"/>
      <point x="89" y="53"/>
      <point x="159" y="187" type="qcurve" smooth="yes"/>
      <point x="380" y="597" type="line" smooth="yes"/>
      <point x="400" y="638"/>
      <point x="400" y="652" type="qcurve" smooth="yes"/>
      <point x="400" y="683"/>
      <point x="381" y="700" type="qcurve"/>
      <point x="700" y="700" type="line"/>
      <point x="975" y="187" type="line" smooth="yes"/>
      <point x="1045" y="53"/>
      <point x="1109" y="0" type="qcurve"/>
      <point x="750" y="0" type="line"/>
      <point x="769" y="14"/>
      <point x="769" y="50" type="qcurve" smooth="yes"/>
      <point x="769" y="80"/>
      <point x="748" y="118" type="qcurve" smooth="yes"/>
      <point x="730" y="151" type="line"/>
    </contour>
  </outline>
</glyph>
<glyph name="edotaccent" format="2">
  <advance width="839"/>
  <unicode hex="0117"/>
  <outline>
    <contour>
      <point x="420" y="750" type="qcurve" smooth="yes"/>
      <point x="371" y="750"/>
      <point x="307" y="803"/>
      <point x="307" y="849" type="qcurve" smooth="yes"/>
      <point x="307" y="871"/>
      <point x="322" y="907"/>
      <point x="351" y="934"/>
      <point x="393" y="949"/>
      <point x="420" y="949" type="qcurve" smooth="yes"/>
      <point x="474" y="949"/>
      <point x="534" y="893"/>
      <point x="534" y="849" type="qcurve" smooth="yes"/>
      <point x="534" y="827"/>
      <point x="516" y="790"/>
      <point x="485" y="764"/>
      <point x="444" y="750"/>
    </contour>
    <contour>
      <point x="25" y="701" type="qcurve"/>
      <point x="285" y="700"/>
      <point x="801" y="700" type="qcurve"/>
      <point x="802" y="664"/>
      <point x="802" y="526"/>
      <point x="802" y="490" type="qcurve"/>
      <point x="769" y="532"/>
      <point x="707" y="532" type="qcurve" smooth="yes"/>
      <point x="358" y="532" type="line"/>
      <point x="358" y="431" type="line"/>
      <point x="722" y="431" type="line"/>
      <point x="722" y="282" type="line"/>
      <point x="358" y="282" type="line"/>
      <point x="358" y="167" type="line"/>
      <point x="412" y="168"/>
      <point x="627" y="168"/>
      <point x="681" y="168" type="qcurve" smooth="yes"/>
      <point x="734" y="168"/>
      <point x="751" y="174" type="qcurve" smooth="yes"/>
      <point x="798" y="193"/>
      <point x="814" y="230" type="qcurve"/>
      <point x="814" y="0" type="line"/>
      <point x="25" y="0" type="line"/>
      <point x="75" y="31"/>
      <point x="75" y="91" type="qcurve" smooth="yes"/>
      <point x="75" y="606" type="line" smooth="yes"/>
      <point x="76" y="634"/>
      <point x="49" y="686"/>
    </contour>
  </outline>
</glyph>
<glyph name="Eogonek" format="2">
  <advance width="839"/>
  <unicode hex="0118"/>
  <outline>
    <contour>
      <point x="25" y="701" type="qcurve"/>
      <point x="285" y="700"/>
      <point x="801" y="700" type="qcurve"/>
      <point x="802" y="664"/>
      <point x="802" y="526"/>
      <point x="802" y="490" type="qcurve"/>
      <point x="769" y="532"/>
      <point x="707" y="532" type="qcurve" smooth="yes"/>
      <point x="358" y="532" type="line"/>
      <point x="358" y="431" type="line"/>
      <point x="722" y="431" type="line"/>
      <point x="722" y="282" type="line"/>
      <point x="358" y="282" type="line"/>
      <point x="358" y="167" type="line"/>
      <point x="412" y="168"/>
      <point x="627" y="168"/>
      <point x="681" y="168" type="qcurve" smooth="yes"/>
      <point x="734" y="168"/>
      <point x="751" y="174" type="qcurve" smooth="yes"/>
      <point x="798" y="193"/>
      <point x="814" y="230" type="qcurve"/>
      <point x="814" y="0" type="line"/>
      <point x="662" y="0" type="line"/>
      <point x="660" y="-5"/>
      <point x="658" y="-10" type="qcurve" smooth="yes"/>
      <point x="645" y="-32"/>
      <point x="577" y="-104"/>
      <point x="564" y="-125" type="qcurve" smooth="yes"/>
      <point x="553" y="-139"/>
      <point x="550" y="-155" type="qcurve" smooth="yes"/>
      <point x="550" y="-159"/>
      <point x="550" y="-163" type="qcurve" smooth="yes"/>
      <point x="550" y="-175"/>
      <point x="556" y="-188" type="qcurve" smooth="yes"/>
      <point x="568" y="-217"/>
      <point x="619" y="-217" type="qcurve" smooth="yes"/>
      <point x="695" y="-217"/>
      <point x="759" y="-159" type="qcurve"/>
      <point x="759" y="-290" type="line"/>
      <point x="674" y="-343"/>
      <point x="559" y="-343" type="qcurve" smooth="yes"/>
      <point x="541" y="-343"/>
      <point x="523" y="-341" type="qcurve" smooth="yes"/>
      <point x="423" y="-332"/>
      <point x="385" y="-290" type="qcurve" smooth="yes"/>
      <point x="357" y="-262"/>
      <point x="355" y="-219" type="qcurve" smooth="yes"/>
      <point x="354" y="-214"/>
      <point x="354" y="-210" type="qcurve" smooth="yes"/>
      <point x="354" y="-172"/>
      <point x="373" y="-141" type="qcurve" smooth="yes"/>
      <point x="384" y="-118"/>
      <point x="418" y="-76"/>
      <point x="463" y="-29"/>
      <point x="475" y="-14" type="qcurve" smooth="yes"/>
      <point x="480" y="-7"/>
      <point x="484" y="0" type="qcurve"/>
      <point x="25" y="0" type="line"/>
      <point x="75" y="31"/>
      <point x="75" y="91" type="qcurve" smooth="yes"/>
      <point x="75" y="606" type="line" smooth="yes"/>
      <point x="76" y="634"/>
      <point x="49" y="686"/>
    </contour>
  </outline>
</glyph>
<glyph name="Hbar" format="2">
  <advance width="1145"/>
  <unicode hex="0126"/>
  <outline>
    <contour>
      <point x="81" y="700" type="qcurve"/>
      <point x="437" y="700" type="line"/>
      <point x="422" y="683"/>
      <point x="417" y="648" type="qcurve"/>
      <point x="722" y="648" type="line"/>
      <point x="717" y="683"/>
      <point x="702" y="700" type="qcurve"/>
      <point x="1058" y="700" type="line"/>
      <point x="1034" y="686"/>
      <point x="1020" y="660" type="qcurve" smooth="yes"/>
      <point x="1017" y="654"/>
      <point x="1015" y="648" type="qcurve"/>
      <point x="1120" y="648" type="line"/>
      <point x="1120" y="482" type="line"/>
      <point x="1008" y="482" type="line"/>
      <point x="1008" y="96" type="line" smooth="yes"/>
      <point x="1007" y="66"/>
      <point x="1034" y="14"/>
      <point x="1058" y="0" type="qcurve"/>
      <point x="702" y="0" type="line"/>
      <point x="723" y="23"/>
      <point x="725" y="85" type="qcurve" smooth="yes"/>
      <point x="725" y="295" type="line"/>
      <point x="414" y="295" type="line"/>
      <point x="414" y="85" type="line" smooth="yes"/>
      <point x="416" y="22"/>
      <point x="438" y="0" type="qcurve"/>
      <point x="79" y="0" type="line"/>
      <point x="104" y="12"/>
      <point x="132" y="66"/>
      <point x="131" y="96" type="qcurve" smooth="yes"/>
      <point x="131" y="482" type="line"/>
      <point x="25" y="482" type="line"/>
      <point x="25" y="648" type="line"/>
      <point x="124" y="648" type="line"/>
      <point x="122" y="654"/>
      <point x="118" y="660" type="qcurve" smooth="yes"/>
      <point x="105" y="686"/>
    </contour>
    <contour>
      <point x="414" y="482" type="line"/>
      <point x="414" y="438" type="line"/>
      <point x="725" y="438" type="line"/>
      <point x="725" y="482" type="line"/>
    </contour>
  </outline>
</glyph>
<glyph name="Itilde" format="2">
  <advance width="548"/>
  <unicode hex="0128"/>
  <outline>
    <contour>
      <point x="467" y="887" type="qcurve" smooth="yes"/>
      <point x="479" y="894"/>
      <point x="501" y="918"/>
      <point x="512" y="934"/>
      <point x="523" y="951" type="qcurve"/>
      <point x="511" y="850"/>
      <point x="479" y="803" type="qcurve" smooth="yes"/>
      <point x="463" y="782"/>
      <point x="412" y="761"/>
      <point x="386" y="764" type="qcurve" smooth="yes"/>
      <point x="346" y="770"/>
      <point x="179" y="810"/>
      <point x="135" y="816" type="qcurve" smooth="yes"/>
      <point x="131" y="816"/>
      <point x="106" y="818"/>
      <point x="90" y="816"/>
      <point x="84" y="812" type="qcurve" smooth="yes"/>
      <point x="47" y="796"/>
      <point x="25" y="751" type="qcurve"/>
      <point x="25" y="844"/>
      <point x="71" y="897" type="qcurve" smooth="yes"/>
      <point x="106" y="937"/>
      <point x="160" y="930" type="qcurve" smooth="yes"/>
      <point x="208" y="926"/>
      <point x="379" y="888"/>
      <point x="411" y="883" type="qcurve" smooth="yes"/>
      <point x="443" y="876"/>
      <point x="467" y="887" type="qcurve" smooth="yes"/>
      <point x="479" y="894"/>
      <point x="501" y="918"/>
      <point x="512" y="934"/>
      <point x="523" y="951" type="qcurve"/>
      <point x="511" y="850"/>
      <point x="479" y="803" type="qcurve" smooth="yes"/>
      <point x="463" y="782"/>
      <point x="412" y="761"/>
      <point x="386" y="764" type="qcurve" smooth="yes"/>
      <point x="346" y="770"/>
      <point x="179" y="810"/>
      <point x="135" y="816" type="qcurve" smooth="yes"/>
      <point x="131" y="816"/>
      <point x="106" y="818"/>
      <point x="90" y="816"/>
      <point x="84" y="812" type="qcurve" smooth="yes"/>
      <point x="47" y="796"/>
      <point x="25" y="751" type="qcurve"/>
      <point x="25" y="844"/>
      <point x="71" y="897" type="qcurve" smooth="yes"/>
      <point x="106" y="937"/>
      <point x="160" y="930" type="qcurve" smooth="yes"/>
      <point x="208" y="926"/>
      <point x="379" y="888"/>
      <point x="411" y="883" type="qcurve" smooth="yes"/>
      <point x="443" y="876"/>
      <point x="467" y="887" type="qcurve" smooth="yes"/>
      <point x="479" y="894"/>
      <point x="501" y="918"/>
      <point x="512" y="934"/>
      <point x="523" y="951" type="qcurve"/>
      <point x="511" y="850"/>
      <point x="479" y="803" type="qcurve" smooth="yes"/>
      <point x="463" y="782"/>
      <point x="412" y="761"/>
      <point x="386" y="764" type="qcurve" smooth="yes"/>
      <point x="346" y="770"/>
      <point x="179" y="810"/>
      <point x="135" y="816" type="qcurve" smooth="yes"/>
      <point x="131" y="816"/>
      <point x="106" y="818"/>
      <point x="90" y="816"/>
      <point x="84" y="812" type="qcurve" smooth="yes"/>
      <point x="47" y="796"/>
      <point x="25" y="751" type="qcurve"/>
      <point x="25" y="844"/>
      <point x="71" y="897" type="qcurve" smooth="yes"/>
      <point x="106" y="937"/>
      <point x="160" y="930" type="qcurve" smooth="yes"/>
      <point x="208" y="926"/>
      <point x="379" y="888"/>
      <point x="411" y="883" type="qcurve" smooth="yes"/>
      <point x="443" y="876"/>
    </contour>
    <contour>
      <point x="90" y="700" type="qcurve"/>
      <point x="473" y="700" type="line"/>
      <point x="449" y="686"/>
      <point x="422" y="634"/>
      <point x="423" y="606" type="qcurve" smooth="yes"/>
      <point x="423" y="95" type="line" smooth="yes"/>
      <point x="422" y="65"/>
      <point x="449" y="13"/>
      <point x="473" y="-1" type="qcurve"/>
      <point x="90" y="-1"/>
      <point x="90" y="-1" type="qcurve"/>
      <point x="140" y="30"/>
      <point x="140" y="90" type="qcurve" smooth="yes"/>
      <point x="140" y="605" type="line" smooth="yes"/>
      <point x="141" y="634"/>
      <point x="114" y="686"/>
    </contour>
  </outline>
</glyph>
<glyph name="Ibreve" format="2">
  <advance width="499"/>
  <unicode hex="012C"/>
  <outline>
    <contour>
      <point x="250" y="886" type="qcurve" smooth="yes"/>
      <point x="212" y="886"/>
      <point x="174" y="922"/>
      <point x="174" y="949" type="qcurve"/>
      <point x="25" y="949" type="line"/>
      <point x="26" y="949"/>
      <point x="25" y="948" type="qcurve" smooth="yes"/>
      <point x="26" y="905"/>
      <point x="54" y="834"/>
      <point x="84" y="807" type="qcurve" smooth="yes"/>
      <point x="112" y="781"/>
      <point x="154" y="766" type="qcurve" smooth="yes"/>
      <point x="194" y="751"/>
      <point x="250" y="751" type="qcurve" smooth="yes"/>
      <point x="357" y="751"/>
      <point x="415" y="806" type="qcurve" smooth="yes"/>
      <point x="475" y="861"/>
      <point x="474" y="948" type="qcurve" smooth="yes"/>
      <point x="475" y="949"/>
      <point x="474" y="949" type="qcurve" smooth="yes"/>
      <point x="325" y="949" type="line"/>
      <point x="326" y="921"/>
      <point x="286" y="886"/>
    </contour>
    <contour>
      <point x="60" y="700" type="qcurve"/>
      <point x="443" y="700" type="line"/>
      <point x="419" y="686"/>
      <point x="392" y="634"/>
      <point x="393" y="606" type="qcurve" smooth="yes"/>
      <point x="393" y="95" type="line" smooth="yes"/>
      <point x="392" y="65"/>
      <point x="419" y="13"/>
      <point x="443" y="-1" type="qcurve"/>
      <point x="60" y="-1"/>
      <point x="60" y="-1" type="qcurve"/>
      <point x="110" y="30"/>
      <point x="110" y="90" type="qcurve" smooth="yes"/>
      <point x="110" y="605" type="line" smooth="yes"/>
      <point x="111" y="634"/>
      <point x="84" y="686"/>
    </contour>
  </outline>
</glyph>
<glyph name="Idotaccent" format="2">
  <advance width="433"/>
  <unicode hex="0130"/>
  <outline>
    <contour>
      <point x="216" y="750" type="qcurve" smooth="yes"/>
      <point x="167" y="750"/>
      <point x="103" y="803"/>
      <point x="103" y="849" type="qcurve" smooth="yes"/>
      <point x="103" y="871"/>
      <point x="118" y="907"/>
      <point x="147" y="934"/>
      <point x="189" y="949"/>
      <point x="216" y="949" type="qcurve" smooth="yes"/>
      <point x="270" y="949"/>
      <point x="330" y="893"/>
      <point x="330" y="849" type="qcurve" smooth="yes"/>
      <point x="330" y="827"/>
      <point x="312" y="790"/>
      <point x="281" y="764"/>
      <point x="240" y="750"/>
    </contour>
    <contour>
      <point x="25" y="700" type="qcurve"/>
      <point x="408" y="700" type="line"/>
      <point x="384" y="686"/>
      <point x="357" y="634"/>
      <point x="358" y="606" type="qcurve" smooth="yes"/>
      <point x="358" y="95" type="line" smooth="yes"/>
      <point x="357" y="65"/>
      <point x="384" y="13"/>
      <point x="408" y="-1" type="qcurve"/>
      <point x="25" y="-1"/>
      <point x="25" y="-1" type="qcurve"/>
      <point x="75" y="30"/>
      <point x="75" y="90" type="qcurve" smooth="yes"/>
      <point x="75" y="605" type="line" smooth="yes"/>
      <point x="76" y="634"/>
      <point x="49" y="686"/>
    </contour>
  </outline>
</glyph>
<glyph name="lacute" format="2">
  <advance width="817"/>
  <unicode hex="013A"/>
  <outline>
    <contour>
      <point x="699" y="948" type="qcurve"/>
      <point x="393" y="948" type="line"/>
      <point x="391" y="940"/>
      <point x="380" y="912"/>
      <point x="377" y="904" type="qcurve" smooth="yes"/>
      <point x="290" y="750" type="line"/>
      <point x="468" y="750" type="line"/>
      <point x="514" y="788"/>
      <point x="679" y="931"/>
      <point x="699" y="948" type="qcurve"/>
      <point x="393" y="948" type="line"/>
      <point x="391" y="940"/>
      <point x="380" y="912"/>
      <point x="377" y="904" type="qcurve" smooth="yes"/>
      <point x="290" y="750" type="line"/>
      <point x="468" y="750" type="line"/>
      <point x="514" y="788"/>
      <point x="679" y="931"/>
      <point x="699" y="948" type="qcurve"/>
      <point x="393" y="948" type="line"/>
      <point x="391" y="940"/>
      <point x="380" y="912"/>
      <point x="377" y="904" type="qcurve" smooth="yes"/>
      <point x="290" y="750" type="line"/>
      <point x="468" y="750" type="line"/>
      <point x="514" y="788"/>
      <point x="679" y="931"/>
    </contour>
    <contour>
      <point x="25" y="700" type="qcurve"/>
      <point x="217" y="698"/>
      <point x="409" y="700" type="qcurve"/>
      <point x="358" y="670"/>
      <point x="358" y="605" type="qcurve" smooth="yes"/>
      <point x="358" y="534"/>
      <point x="358" y="250"/>
      <point x="359" y="178" type="qcurve"/>
      <point x="636" y="178" type="line" smooth="yes"/>
      <point x="682" y="176"/>
      <point x="766" y="217"/>
      <point x="792" y="255" type="qcurve"/>
      <point x="792" y="-1" type="line"/>
      <point x="25" y="-1"/>
      <point x="25" y="-1" type="qcurve"/>
      <point x="50" y="13"/>
      <point x="77" y="66"/>
      <point x="75" y="95" type="qcurve" smooth="yes"/>
      <point x="75" y="606" type="line" smooth="yes"/>
      <point x="76" y="634"/>
      <point x="49" y="686"/>
    </contour>
  </outline>
</glyph>
<glyph name="Nacute" format="2">
  <advance width="1009"/>
  <unicode hex="0143"/>
  <outline>
    <contour>
      <point x="799" y="949" type="qcurve"/>
      <point x="493" y="949" type="line"/>
      <point x="491" y="941"/>
      <point x="481" y="913"/>
      <point x="478" y="904" type="qcurve" smooth="yes"/>
      <point x="390" y="751" type="line"/>
      <point x="568" y="751" type="line"/>
      <point x="615" y="789"/>
      <point x="779" y="932"/>
      <point x="799" y="949" type="qcurve"/>
      <point x="493" y="949" type="line"/>
      <point x="491" y="941"/>
      <point x="481" y="913"/>
      <point x="478" y="904" type="qcurve" smooth="yes"/>
      <point x="390" y="751" type="line"/>
      <point x="568" y="751" type="line"/>
      <point x="615" y="789"/>
      <point x="779" y="932"/>
      <point x="799" y="949" type="qcurve"/>
      <point x="493" y="949" type="line"/>
      <point x="491" y="941"/>
      <point x="481" y="913"/>
      <point x="478" y="904" type="qcurve" smooth="yes"/>
      <point x="390" y="751" type="line"/>
      <point x="568" y="751" type="line"/>
      <point x="615" y="789"/>
      <point x="779" y="932"/>
    </contour>
    <contour>
      <point x="25" y="699" type="qcurve"/>
      <point x="86" y="698"/>
      <point x="328" y="698"/>
      <point x="389" y="698" type="qcurve"/>
      <point x="662" y="354"/>
      <point x="720" y="280" type="qcurve"/>
      <point x="720" y="611" type="line" smooth="yes"/>
      <point x="720" y="675"/>
      <point x="681" y="699" type="qcurve"/>
      <point x="681" y="699"/>
      <point x="984" y="699" type="qcurve"/>
      <point x="960" y="685"/>
      <point x="932" y="633"/>
      <point x="933" y="605" type="qcurve" smooth="yes"/>
      <point x="933" y="90" type="line" smooth="yes"/>
      <point x="933" y="30"/>
      <point x="984" y="0" type="qcurve"/>
      <point x="615" y="0" type="line"/>
      <point x="289" y="411" type="line"/>
      <point x="289" y="90" type="line" smooth="yes"/>
      <point x="289" y="36"/>
      <point x="314" y="10" type="qcurve" smooth="yes"/>
      <point x="315" y="8"/>
      <point x="326" y="4"/>
      <point x="328" y="1" type="qcurve"/>
      <point x="320" y="0"/>
      <point x="303" y="0" type="qcurve" smooth="yes"/>
      <point x="25" y="0" type="line"/>
      <point x="75" y="31"/>
      <point x="75" y="90" type="qcurve" smooth="yes"/>
      <point x="75" y="605" type="line" smooth="yes"/>
      <point x="76" y="633"/>
      <point x="49" y="685"/>
    </contour>
  </outline>
</glyph>
<glyph name="uni0145" format="2">
  <advance width="1009"/>
  <unicode hex="0145"/>
  <outline>
    <contour>
      <point x="435" y="-69" type="qcurve"/>
      <point x="574" y="-69" type="line"/>
      <point x="514" y="-192"/>
      <point x="479" y="-269" type="qcurve"/>
      <point x="398" y="-269" type="line"/>
      <point x="404" y="-238"/>
      <point x="427" y="-131"/>
      <point x="432" y="-110" type="qcurve" smooth="yes"/>
      <point x="435" y="-97"/>
    </contour>
    <contour>
      <point x="435" y="-69" type="qcurve"/>
      <point x="574" y="-69" type="line"/>
      <point x="514" y="-192"/>
      <point x="479" y="-269" type="qcurve"/>
      <point x="398" y="-269" type="line"/>
      <point x="404" y="-238"/>
      <point x="427" y="-131"/>
      <point x="432" y="-110" type="qcurve" smooth="yes"/>
      <point x="435" y="-97"/>
    </contour>
    <contour>
      <point x="435" y="-69" type="qcurve"/>
      <point x="574" y="-69" type="line"/>
      <point x="514" y="-192"/>
      <point x="479" y="-269" type="qcurve"/>
      <point x="398" y="-269" type="line"/>
      <point x="404" y="-238"/>
      <point x="427" y="-131"/>
      <point x="432" y="-110" type="qcurve" smooth="yes"/>
      <point x="435" y="-97"/>
    </contour>
    <contour>
      <point x="25" y="699" type="qcurve"/>
      <point x="86" y="698"/>
      <point x="328" y="698"/>
      <point x="389" y="698" type="qcurve"/>
      <point x="662" y="354"/>
      <point x="720" y="280" type="qcurve"/>
      <point x="720" y="611" type="line" smooth="yes"/>
      <point x="720" y="675"/>
      <point x="681" y="699" type="qcurve"/>
      <point x="681" y="699"/>
      <point x="984" y="699" type="qcurve"/>
      <point x="960" y="685"/>
      <point x="932" y="633"/>
      <point x="933" y="605" type="qcurve" smooth="yes"/>
      <point x="933" y="90" type="line" smooth="yes"/>
      <point x="933" y="30"/>
      <point x="984" y="0" type="qcurve"/>
      <point x="615" y="0" type="line"/>
      <point x="289" y="411" type="line"/>
      <point x="289" y="90" type="line" smooth="yes"/>
      <point x="289" y="36"/>
      <point x="314" y="10" type="qcurve" smooth="yes"/>
      <point x="315" y="8"/>
      <point x="326" y="4"/>
      <point x="328" y="1" type="qcurve"/>
      <point x="320" y="0"/>
      <point x="303" y="0" type="qcurve" smooth="yes"/>
      <point x="25" y="0" type="line"/>
      <point x="75" y="31"/>
      <point x="75" y="90" type="qcurve" smooth="yes"/>
      <point x="75" y="605" type="line" smooth="yes"/>
      <point x="76" y="633"/>
      <point x="49" y="685"/>
    </contour>
  </outline>
</glyph>
<glyph name="napostrophe" format="2">
  <advance width="1010"/>
  <unicode hex="0149"/>
  <outline>
    <contour>
      <point x="89" y="1064" type="qcurve"/>
      <point x="306" y="1064" type="line"/>
      <point x="280" y="1006"/>
      <point x="176" y="790"/>
      <point x="157" y="750" type="qcurve"/>
      <point x="25" y="750" type="line"/>
      <point x="29" y="766"/>
      <point x="71" y="954"/>
      <point x="83" y="1004" type="qcurve" smooth="yes"/>
      <point x="89" y="1018"/>
      <point x="89" y="1064" type="qcurve"/>
      <point x="306" y="1064" type="line"/>
      <point x="280" y="1006"/>
      <point x="176" y="790"/>
      <point x="157" y="750" type="qcurve"/>
      <point x="25" y="750" type="line"/>
      <point x="29" y="766"/>
      <point x="71" y="954"/>
      <point x="83" y="1004" type="qcurve" smooth="yes"/>
      <point x="89" y="1018"/>
      <point x="89" y="1064" type="qcurve"/>
      <point x="306" y="1064" type="line"/>
      <point x="280" y="1006"/>
      <point x="176" y="790"/>
      <point x="157" y="750" type="qcurve"/>
      <point x="25" y="750" type="line"/>
      <point x="29" y="766"/>
      <point x="71" y="954"/>
      <point x="83" y="1004" type="qcurve" smooth="yes"/>
      <point x="89" y="1018"/>
    </contour>
    <contour>
      <point x="26" y="699" type="qcurve"/>
      <point x="87" y="698"/>
      <point x="329" y="698"/>
      <point x="390" y="698" type="qcurve"/>
      <point x="663" y="354"/>
      <point x="721" y="280" type="qcurve"/>
      <point x="721" y="611" type="line" smooth="yes"/>
      <point x="721" y="675"/>
      <point x="682" y="699" type="qcurve"/>
      <point x="682" y="699"/>
      <point x="985" y="699" type="qcurve"/>
      <point x="961" y="685"/>
      <point x="933" y="633"/>
      <point x="934" y="605" type="qcurve" smooth="yes"/>
      <point x="934" y="90" type="line" smooth="yes"/>
      <point x="934" y="30"/>
      <point x="985" y="0" type="qcurve"/>
      <point x="616" y="0" type="line"/>
      <point x="290" y="411" type="line"/>
      <point x="290" y="90" type="line" smooth="yes"/>
      <point x="290" y="36"/>
      <point x="315" y="10" type="qcurve" smooth="yes"/>
      <point x="316" y="8"/>
      <point x="327" y="4"/>
      <point x="329" y="1" type="qcurve"/>
      <point x="321" y="0"/>
      <point x="304" y="0" type="qcurve" smooth="yes"/>
      <point x="26" y="0" type="line"/>
      <point x="76" y="31"/>
      <point x="76" y="90" type="qcurve" smooth="yes"/>
      <point x="76" y="605" type="line" smooth="yes"/>
      <point x="77" y="633"/>
      <point x="50" y="685"/>
    </contour>
  </outline>
</glyph>
<glyph name="OE" format="2">
  <advance width="1469"/>
  <unicode hex="0152"/>
  <outline>
    <contour>
      <point x="505" y="454" type="line"/>
      <point x="595" y="337" type="line"/>
      <point x="583" y="323"/>
      <point x="550" y="279" type="qcurve" smooth="yes"/>
      <point x="519" y="239" type="line"/>
      <point x="505" y="221" type="line" smooth="yes"/>
      <point x="505" y="220"/>
      <point x="492" y="237"/>
      <point x="471" y="265"/>
      <point x="461" y="279" type="qcurve" smooth="yes"/>
      <point x="417" y="338" type="line"/>
    </contour>
    <contour>
      <point x="471" y="563" type="qcurve" smooth="yes"/>
      <point x="407" y="551"/>
      <point x="378" y="499" type="qcurve" smooth="yes"/>
      <point x="357" y="462"/>
      <point x="345" y="376"/>
      <point x="346" y="319" type="qcurve" smooth="yes"/>
      <point x="348" y="286"/>
      <point x="354" y="244"/>
      <point x="373" y="189"/>
      <point x="389" y="170" type="qcurve" smooth="yes"/>
      <point x="433" y="123"/>
      <point x="527" y="129" type="qcurve" smooth="yes"/>
      <point x="606" y="135"/>
      <point x="637" y="187" type="qcurve" smooth="yes"/>
      <point x="658" y="222"/>
      <point x="669" y="304"/>
      <point x="668" y="361" type="qcurve" smooth="yes"/>
      <point x="665" y="415"/>
      <point x="646" y="493"/>
      <point x="620" y="523" type="qcurve" smooth="yes"/>
      <point x="595" y="552"/>
      <point x="514" y="570"/>
    </contour>
    <contour>
      <point x="408" y="712" type="qcurve" smooth="yes"/>
      <point x="564" y="724"/>
      <point x="683" y="701" type="qcurve"/>
      <point x="942" y="700"/>
      <point x="1431" y="700" type="qcurve"/>
      <point x="1432" y="664"/>
      <point x="1432" y="526"/>
      <point x="1432" y="490" type="qcurve"/>
      <point x="1399" y="532"/>
      <point x="1337" y="532" type="qcurve" smooth="yes"/>
      <point x="988" y="532" type="line"/>
      <point x="988" y="431" type="line"/>
      <point x="1352" y="431" type="line"/>
      <point x="1352" y="282" type="line"/>
      <point x="988" y="282" type="line"/>
      <point x="988" y="167" type="line"/>
      <point x="1042" y="168"/>
      <point x="1257" y="168"/>
      <point x="1311" y="168" type="qcurve" smooth="yes"/>
      <point x="1364" y="168"/>
      <point x="1381" y="174" type="qcurve" smooth="yes"/>
      <point x="1428" y="193"/>
      <point x="1444" y="230" type="qcurve"/>
      <point x="1444" y="0" type="line"/>
      <point x="722" y="0" type="line"/>
      <point x="639" y="-21"/>
      <point x="532" y="-24" type="qcurve" smooth="yes"/>
      <point x="432" y="-24"/>
      <point x="272" y="-3"/>
      <point x="201" y="28" type="qcurve" smooth="yes"/>
      <point x="148" y="52"/>
      <point x="69" y="133"/>
      <point x="49" y="186" type="qcurve" smooth="yes"/>
      <point x="16" y="277"/>
      <point x="28" y="403" type="qcurve" smooth="yes"/>
      <point x="42" y="540"/>
      <point x="131" y="614" type="qcurve" smooth="yes"/>
      <point x="227" y="697"/>
    </contour>
  </outline>
</glyph>
<glyph name="Rcaron" format="2">
  <advance width="994"/>
  <unicode hex="0158"/>
  <outline>
    <contour>
      <point x="433" y="750" type="qcurve"/>
      <point x="436" y="750" type="line"/>
      <point x="517" y="750" type="line"/>
      <point x="660" y="947" type="line"/>
      <point x="559" y="947" type="line"/>
      <point x="546" y="929"/>
      <point x="490" y="851"/>
      <point x="475" y="830" type="qcurve"/>
      <point x="465" y="843"/>
      <point x="407" y="924"/>
      <point x="390" y="947" type="qcurve"/>
      <point x="293" y="947" type="line"/>
      <point x="313" y="918"/>
      <point x="407" y="786"/>
      <point x="433" y="750" type="qcurve"/>
      <point x="436" y="750" type="line"/>
      <point x="517" y="750" type="line"/>
      <point x="660" y="947" type="line"/>
      <point x="559" y="947" type="line"/>
      <point x="546" y="929"/>
      <point x="490" y="851"/>
      <point x="475" y="830" type="qcurve"/>
      <point x="465" y="843"/>
      <point x="407" y="924"/>
      <point x="390" y="947" type="qcurve"/>
      <point x="293" y="947" type="line"/>
      <point x="313" y="918"/>
      <point x="407" y="786"/>
      <point x="433" y="750" type="qcurve"/>
      <point x="436" y="750" type="line"/>
      <point x="517" y="750" type="line"/>
      <point x="660" y="947" type="line"/>
      <point x="559" y="947" type="line"/>
      <point x="546" y="929"/>
      <point x="490" y="851"/>
      <point x="475" y="830" type="qcurve"/>
      <point x="465" y="843"/>
      <point x="407" y="924"/>
      <point x="390" y="947" type="qcurve"/>
      <point x="293" y="947" type="line"/>
      <point x="313" y="918"/>
      <point x="407" y="786"/>
    </contour>
    <contour>
      <point x="25" y="698" type="qcurve"/>
      <point x="616" y="698"/>
      <point x="616" y="698" type="qcurve"/>
      <point x="761" y="692"/>
      <point x="830" y="639" type="qcurve" smooth="yes"/>
      <point x="879" y="600"/>
      <point x="896" y="467"/>
      <point x="864" y="414" type="qcurve" smooth="yes"/>
      <point x="838" y="365"/>
      <point x="766" y="330" type="qcurve"/>
      <point x="844" y="307"/>
      <point x="878" y="254" type="qcurve" smooth="yes"/>
      <point x="915" y="199"/>
      <point x="917" y="79" type="qcurve" smooth="yes"/>
      <point x="919" y="23"/>
      <point x="969" y="-1" type="qcurve"/>
      <point x="601" y="-1" type="line"/>
      <point x="636" y="17"/>
      <point x="636" y="64" type="qcurve" smooth="yes"/>
      <point x="636" y="150"/>
      <point x="602" y="184" type="qcurve" smooth="yes"/>
      <point x="572" y="215"/>
      <point x="492" y="221" type="qcurve" smooth="yes"/>
      <point x="470" y="222"/>
      <point x="381" y="222"/>
      <point x="359" y="222" type="qcurve"/>
      <point x="359" y="90" type="line" smooth="yes"/>
      <point x="359" y="29"/>
      <point x="409" y="-1" type="qcurve"/>
      <point x="26" y="-1" type="line"/>
      <point x="76" y="29"/>
      <point x="76" y="90" type="qcurve" smooth="yes"/>
      <point x="76" y="605" type="line" smooth="yes"/>
      <point x="76" y="669"/>
    </contour>
    <contour>
      <point x="535" y="552" type="qcurve" smooth="yes"/>
      <point x="359" y="552" type="line"/>
      <point x="359" y="380" type="line"/>
      <point x="530" y="380" type="line" smooth="yes"/>
      <point x="562" y="378"/>
      <point x="587" y="390" type="qcurve" smooth="yes"/>
      <point x="625" y="406"/>
      <point x="643" y="496"/>
      <point x="615" y="526" type="qcurve" smooth="yes"/>
      <point x="589" y="552"/>
    </contour>
  </outline>
</glyph>
<glyph name="scedilla" format="2">
  <advance width="742"/>
  <unicode hex="015F"/>
  <outline>
    <contour>
      <point x="154" y="667" type="qcurve" smooth="yes"/>
      <point x="110" y="646"/>
      <point x="45" y="575"/>
      <point x="34" y="531" type="qcurve" smooth="yes"/>
      <point x="8" y="428"/>
      <point x="61" y="355" type="qcurve" smooth="yes"/>
      <point x="100" y="304"/>
      <point x="196" y="268" type="qcurve" smooth="yes"/>
      <point x="228" y="256"/>
      <point x="359" y="214"/>
      <point x="392" y="203" type="qcurve" smooth="yes"/>
      <point x="395" y="202"/>
      <point x="418" y="193"/>
      <point x="432" y="185"/>
      <point x="439" y="180" type="qcurve" smooth="yes"/>
      <point x="450" y="171"/>
      <point x="445" y="143"/>
      <point x="433" y="134" type="qcurve" smooth="yes"/>
      <point x="421" y="127"/>
      <point x="391" y="120"/>
      <point x="364" y="121"/>
      <point x="349" y="121" type="qcurve" smooth="yes"/>
      <point x="193" y="128"/>
      <point x="41" y="227" type="qcurve"/>
      <point x="41" y="23" type="line"/>
      <point x="157" y="-17"/>
      <point x="303" y="-23" type="qcurve"/>
      <point x="292" y="-9"/>
      <point x="286" y="1" type="qcurve"/>
      <point x="292" y="-9"/>
      <point x="303" y="-23" type="qcurve" smooth="yes"/>
      <point x="315" y="-38"/>
      <point x="333" y="-57" type="qcurve" smooth="yes"/>
      <point x="367" y="-93"/>
      <point x="380" y="-115" type="qcurve" smooth="yes"/>
      <point x="392" y="-129"/>
      <point x="395" y="-145" type="qcurve" smooth="yes"/>
      <point x="395" y="-149"/>
      <point x="395" y="-153" type="qcurve" smooth="yes"/>
      <point x="395" y="-166"/>
      <point x="389" y="-179" type="qcurve" smooth="yes"/>
      <point x="376" y="-208"/>
      <point x="325" y="-208" type="qcurve" smooth="yes"/>
      <point x="248" y="-208"/>
      <point x="184" y="-149" type="qcurve"/>
      <point x="184" y="-282" type="line"/>
      <point x="270" y="-335"/>
      <point x="385" y="-335" type="qcurve" smooth="yes"/>
      <point x="404" y="-335"/>
      <point x="423" y="-334" type="qcurve" smooth="yes"/>
      <point x="523" y="-325"/>
      <point x="562" y="-282" type="qcurve" smooth="yes"/>
      <point x="590" y="-254"/>
      <point x="593" y="-210" type="qcurve" smooth="yes"/>
      <point x="593" y="-206"/>
      <point x="593" y="-201" type="qcurve" smooth="yes"/>
      <point x="593" y="-163"/>
      <point x="574" y="-132" type="qcurve" smooth="yes"/>
      <point x="563" y="-108"/>
      <point x="529" y="-66"/>
      <point x="506" y="-42" type="qcurve" smooth="yes"/>
      <point x="489" y="-25"/>
      <point x="478" y="-12" type="qcurve"/>
      <point x="584" y="9"/>
      <point x="646" y="64" type="qcurve" smooth="yes"/>
      <point x="683" y="97"/>
      <point x="721" y="189"/>
      <point x="716" y="239" type="qcurve" smooth="yes"/>
      <point x="711" y="318"/>
      <point x="652" y="362" type="qcurve" smooth="yes"/>
      <point x="636" y="374"/>
      <point x="598" y="395"/>
      <point x="568" y="409"/>
      <point x="519" y="426"/>
      <point x="495" y="434"/>
      <point x="437" y="450"/>
      <point x="428" y="453" type="qcurve" smooth="yes"/>
      <point x="418" y="456"/>
      <point x="378" y="468"/>
      <point x="348" y="479"/>
      <point x="336" y="487" type="qcurve" smooth="yes"/>
      <point x="318" y="497"/>
      <point x="313" y="544"/>
      <point x="330" y="555" type="qcurve" smooth="yes"/>
      <point x="353" y="569"/>
      <point x="412" y="567" type="qcurve" smooth="yes"/>
      <point x="557" y="562"/>
      <point x="673" y="471" type="qcurve"/>
      <point x="673" y="674" type="line"/>
      <point x="574" y="714"/>
      <point x="433" y="716" type="qcurve" smooth="yes"/>
      <point x="264" y="721"/>
    </contour>
    <contour>
      <point x="478" y="-12" type="qcurve"/>
      <point x="474" y="-7"/>
      <point x="470" y="-3" type="qcurve"/>
      <point x="474" y="-7"/>
    </contour>
  </outline>
</glyph>
<glyph name="utilde" format="2">
  <advance width="984"/>
  <unicode hex="0169"/>
  <outline>
    <contour>
      <point x="698" y="885" type="qcurve" smooth="yes"/>
      <point x="710" y="891"/>
      <point x="732" y="915"/>
      <point x="744" y="931"/>
      <point x="754" y="949" type="qcurve"/>
      <point x="743" y="848"/>
      <point x="710" y="801" type="qcurve" smooth="yes"/>
      <point x="694" y="779"/>
      <point x="644" y="758"/>
      <point x="617" y="762" type="qcurve" smooth="yes"/>
      <point x="577" y="768"/>
      <point x="411" y="807"/>
      <point x="366" y="814" type="qcurve" smooth="yes"/>
      <point x="363" y="814"/>
      <point x="337" y="815"/>
      <point x="321" y="814"/>
      <point x="316" y="810" type="qcurve" smooth="yes"/>
      <point x="278" y="794"/>
      <point x="256" y="749" type="qcurve"/>
      <point x="256" y="842"/>
      <point x="303" y="894" type="qcurve" smooth="yes"/>
      <point x="337" y="934"/>
      <point x="392" y="928" type="qcurve" smooth="yes"/>
      <point x="440" y="923"/>
      <point x="610" y="886"/>
      <point x="643" y="881" type="qcurve" smooth="yes"/>
      <point x="674" y="874"/>
      <point x="698" y="885" type="qcurve" smooth="yes"/>
      <point x="710" y="891"/>
      <point x="732" y="915"/>
      <point x="744" y="931"/>
      <point x="754" y="949" type="qcurve"/>
      <point x="743" y="848"/>
      <point x="710" y="801" type="qcurve" smooth="yes"/>
      <point x="694" y="779"/>
      <point x="644" y="758"/>
      <point x="617" y="762" type="qcurve" smooth="yes"/>
      <point x="577" y="768"/>
      <point x="411" y="807"/>
      <point x="366" y="814" type="qcurve" smooth="yes"/>
      <point x="363" y="814"/>
      <point x="337" y="815"/>
      <point x="321" y="814"/>
      <point x="316" y="810" type="qcurve" smooth="yes"/>
      <point x="278" y="794"/>
      <point x="256" y="749" type="qcurve"/>
      <point x="256" y="842"/>
      <point x="303" y="894" type="qcurve" smooth="yes"/>
      <point x="337" y="934"/>
      <point x="392" y="928" type="qcurve" smooth="yes"/>
      <point x="440" y="923"/>
      <point x="610" y="886"/>
      <point x="643" y="881" type="qcurve" smooth="yes"/>
      <point x="674" y="874"/>
      <point x="698" y="885" type="qcurve" smooth="yes"/>
      <point x="710" y="891"/>
      <point x="732" y="915"/>
      <point x="744" y="931"/>
      <point x="754" y="949" type="qcurve"/>
      <point x="743" y="848"/>
      <point x="710" y="801" type="qcurve" smooth="yes"/>
      <point x="694" y="779"/>
      <point x="644" y="758"/>
      <point x="617" y="762" type="qcurve" smooth="yes"/>
      <point x="577" y="768"/>
      <point x="411" y="807"/>
      <point x="366" y="814" type="qcurve" smooth="yes"/>
      <point x="363" y="814"/>
      <point x="337" y="815"/>
      <point x="321" y="814"/>
      <point x="316" y="810" type="qcurve" smooth="yes"/>
      <point x="278" y="794"/>
      <point x="256" y="749" type="qcurve"/>
      <point x="256" y="842"/>
      <point x="303" y="894" type="qcurve" smooth="yes"/>
      <point x="337" y="934"/>
      <point x="392" y="928" type="qcurve" smooth="yes"/>
      <point x="440" y="923"/>
      <point x="610" y="886"/>
      <point x="643" y="881" type="qcurve" smooth="yes"/>
      <point x="674" y="874"/>
    </contour>
    <contour>
      <point x="25" y="700" type="qcurve"/>
      <point x="26" y="699"/>
      <point x="203" y="700" type="qcurve" smooth="yes"/>
      <point x="380" y="700" type="line"/>
      <point x="358" y="675"/>
      <point x="358" y="612" type="qcurve" smooth="yes"/>
      <point x="358" y="283" type="line" smooth="yes"/>
      <point x="358" y="213"/>
      <point x="400" y="180" type="qcurve" smooth="yes"/>
      <point x="447" y="143"/>
      <point x="534" y="150" type="qcurve" smooth="yes"/>
      <point x="597" y="155"/>
      <point x="625" y="202" type="qcurve" smooth="yes"/>
      <point x="644" y="234"/>
      <point x="644" y="298" type="qcurve" smooth="yes"/>
      <point x="644" y="350"/>
      <point x="644" y="560"/>
      <point x="643" y="612" type="qcurve" smooth="yes"/>
      <point x="643" y="676"/>
      <point x="619" y="700" type="qcurve"/>
      <point x="790" y="699"/>
      <point x="959" y="700" type="qcurve"/>
      <point x="909" y="669"/>
      <point x="909" y="607" type="qcurve" smooth="yes"/>
      <point x="909" y="266" type="line" smooth="yes"/>
      <point x="909" y="153"/>
      <point x="850" y="83" type="qcurve" smooth="yes"/>
      <point x="794" y="17"/>
      <point x="688" y="-6" type="qcurve" smooth="yes"/>
      <point x="582" y="-31"/>
      <point x="428" y="-24" type="qcurve" smooth="yes"/>
      <point x="252" y="-15"/>
      <point x="161" y="64" type="qcurve" smooth="yes"/>
      <point x="77" y="135"/>
      <point x="75" y="261" type="qcurve" smooth="yes"/>
      <point x="74" y="261"/>
      <point x="74" y="436" type="qcurve" smooth="yes"/>
      <point x="75" y="612" type="line" smooth="yes"/>
      <point x="73" y="670"/>
    </contour>
  </outline>
</glyph>
<glyph name="Uring" format="2">
  <advance width="984"/>
  <unicode hex="016E"/>
  <outline>
    <contour>
      <point x="494" y="750" type="qcurve" smooth="yes"/>
      <point x="444" y="750"/>
      <point x="380" y="803"/>
      <point x="380" y="850" type="qcurve" smooth="yes"/>
      <point x="380" y="871"/>
      <point x="395" y="908"/>
      <point x="424" y="934"/>
      <point x="466" y="949"/>
      <point x="494" y="949" type="qcurve" smooth="yes"/>
      <point x="548" y="949"/>
      <point x="607" y="894"/>
      <point x="607" y="850" type="qcurve" smooth="yes"/>
      <point x="607" y="827"/>
      <point x="589" y="790"/>
      <point x="559" y="764"/>
      <point x="518" y="750"/>
    </contour>
    <contour>
      <point x="494" y="881" type="qcurve" smooth="yes"/>
      <point x="475" y="881"/>
      <point x="455" y="863"/>
      <point x="455" y="849" type="qcurve" smooth="yes"/>
      <point x="455" y="837"/>
      <point x="475" y="818"/>
      <point x="494" y="818" type="qcurve" smooth="yes"/>
      <point x="512" y="818"/>
      <point x="532" y="837"/>
      <point x="532" y="849" type="qcurve" smooth="yes"/>
      <point x="532" y="863"/>
      <point x="512" y="881"/>
    </contour>
    <contour>
      <point x="25" y="700" type="qcurve"/>
      <point x="26" y="699"/>
      <point x="203" y="700" type="qcurve" smooth="yes"/>
      <point x="380" y="700" type="line"/>
      <point x="358" y="675"/>
      <point x="358" y="612" type="qcurve" smooth="yes"/>
      <point x="358" y="283" type="line" smooth="yes"/>
      <point x="358" y="213"/>
      <point x="400" y="180" type="qcurve" smooth="yes"/>
      <point x="447" y="143"/>
      <point x="534" y="150" type="qcurve" smooth="yes"/>
      <point x="597" y="155"/>
      <point x="625" y="202" type="qcurve" smooth="yes"/>
      <point x="644" y="234"/>
      <point x="644" y="298" type="qcurve" smooth="yes"/>
      <point x="644" y="350"/>
      <point x="644" y="560"/>
      <point x="643" y="612" type="qcurve" smooth="yes"/>
      <point x="643" y="676"/>
      <point x="619" y="700" type="qcurve"/>
      <point x="790" y="699"/>
      <point x="959" y="700" type="qcurve"/>
      <point x="909" y="669"/>
      <point x="909" y="607" type="qcurve" smooth="yes"/>
      <point x="909" y="266" type="line" smooth="yes"/>
      <point x="909" y="153"/>
      <point x="850" y="83" type="qcurve" smooth="yes"/>
      <point x="794" y="17"/>
      <point x="688" y="-6" type="qcurve" smooth="yes"/>
      <point x="582" y="-31"/>
      <point x="428" y="-24" type="qcurve" smooth="yes"/>
      <point x="252" y="-15"/>
      <point x="161" y="64" type="qcurve" smooth="yes"/>
      <point x="77" y="135"/>
      <point x="75" y="261" type="qcurve" smooth="yes"/>
      <point x="74" y="261"/>
      <point x="74" y="436" type="qcurve" smooth="yes"/>
      <point x="75" y="612" type="line" smooth="yes"/>
      <point x="73" y="670"/>
    </contour>
  </outline>
</glyph>
<glyph name="wcircumflex" format="2">
  <advance width="1672"/>
  <unicode hex="0175"/>
  <outline>
    <contour>
      <point x="804" y="948" type="qcurve"/>
      <point x="807" y="948" type="line"/>
      <point x="888" y="948" type="line"/>
      <point x="1032" y="751" type="line"/>
      <point x="930" y="751" type="line"/>
      <point x="917" y="769"/>
      <point x="861" y="847"/>
      <point x="846" y="867" type="qcurve"/>
      <point x="836" y="854"/>
      <point x="779" y="774"/>
      <point x="762" y="751" type="qcurve"/>
      <point x="664" y="751" type="line"/>
      <point x="684" y="780"/>
      <point x="779" y="911"/>
      <point x="804" y="948" type="qcurve"/>
      <point x="807" y="948" type="line"/>
      <point x="888" y="948" type="line"/>
      <point x="1032" y="751" type="line"/>
      <point x="930" y="751" type="line"/>
      <point x="917" y="769"/>
      <point x="861" y="847"/>
      <point x="846" y="867" type="qcurve"/>
      <point x="836" y="854"/>
      <point x="779" y="774"/>
      <point x="762" y="751" type="qcurve"/>
      <point x="664" y="751" type="line"/>
      <point x="684" y="780"/>
      <point x="779" y="911"/>
      <point x="804" y="948" type="qcurve"/>
      <point x="807" y="948" type="line"/>
      <point x="888" y="948" type="line"/>
      <point x="1032" y="751" type="line"/>
      <point x="930" y="751" type="line"/>
      <point x="917" y="769"/>
      <point x="861" y="847"/>
      <point x="846" y="867" type="qcurve"/>
      <point x="836" y="854"/>
      <point x="779" y="774"/>
      <point x="762" y="751" type="qcurve"/>
      <point x="664" y="751" type="line"/>
      <point x="684" y="780"/>
      <point x="779" y="911"/>
    </contour>
    <contour>
      <point x="25" y="700" type="qcurve"/>
      <point x="315" y="700"/>
      <point x="462" y="701" type="qcurve"/>
      <point x="440" y="692"/>
      <point x="426" y="644"/>
      <point x="435" y="623" type="qcurve" smooth="yes"/>
      <point x="538" y="321"/>
      <point x="559" y="259" type="qcurve"/>
      <point x="717" y="700" type="line"/>
      <point x="977" y="700" type="line"/>
      <point x="1136" y="260" type="line"/>
      <point x="1259" y="619" type="line" smooth="yes"/>
      <point x="1269" y="640"/>
      <point x="1255" y="692"/>
      <point x="1232" y="701" type="qcurve"/>
      <point x="1372" y="700"/>
      <point x="1647" y="700" type="qcurve"/>
      <point x="1593" y="674"/>
      <point x="1568" y="642" type="qcurve" smooth="yes"/>
      <point x="1559" y="630"/>
      <point x="1538" y="582" type="qcurve" smooth="yes"/>
      <point x="1343" y="91" type="line" smooth="yes"/>
      <point x="1341" y="86"/>
      <point x="1331" y="61"/>
      <point x="1326" y="48"/>
      <point x="1319" y="27"/>
      <point x="1316" y="8"/>
      <point x="1316" y="-1" type="qcurve"/>
      <point x="959" y="-1" type="line"/>
      <point x="958" y="46"/>
      <point x="943" y="95" type="qcurve" smooth="yes"/>
      <point x="836" y="411" type="line"/>
      <point x="727" y="87" type="line" smooth="yes"/>
      <point x="714" y="47"/>
      <point x="714" y="-1" type="qcurve"/>
      <point x="356" y="-1" type="line"/>
      <point x="352" y="30"/>
      <point x="337" y="69" type="qcurve" smooth="yes"/>
      <point x="301" y="160"/>
      <point x="158" y="520"/>
      <point x="122" y="611" type="qcurve" smooth="yes"/>
      <point x="98" y="665"/>
    </contour>
  </outline>
</glyph>
<glyph name="Zdotaccent" format="2">
  <advance width="849"/>
  <unicode hex="017B"/>
  <outline>
    <contour>
      <point x="433" y="750" type="qcurve" smooth="yes"/>
      <point x="383" y="750"/>
      <point x="320" y="803"/>
      <point x="320" y="849" type="qcurve" smooth="yes"/>
      <point x="320" y="871"/>
      <point x="335" y="907"/>
      <point x="364" y="933"/>
      <point x="405" y="948"/>
      <point x="433" y="948" type="qcurve" smooth="yes"/>
      <point x="487" y="948"/>
      <point x="546" y="893"/>
      <point x="546" y="849" type="qcurve" smooth="yes"/>
      <point x="546" y="827"/>
      <point x="528" y="790"/>
      <point x="498" y="764"/>
      <point x="457" y="750"/>
    </contour>
    <contour>
      <point x="48" y="444" type="qcurve"/>
      <point x="48" y="700" type="line"/>
      <point x="798" y="700" type="line"/>
      <point x="798" y="554" type="line"/>
      <point x="723" y="480"/>
      <point x="451" y="211"/>
      <point x="407" y="168" type="qcurve"/>
      <point x="696" y="168"/>
      <point x="696" y="168" type="qcurve" smooth="yes"/>
      <point x="734" y="169"/>
      <point x="802" y="211"/>
      <point x="824" y="245" type="qcurve"/>
      <point x="824" y="0" type="line"/>
      <point x="25" y="0" type="line"/>
      <point x="25" y="134" type="line"/>
      <point x="415" y="521" type="line"/>
      <point x="375" y="520"/>
      <point x="216" y="520"/>
      <point x="176" y="520" type="qcurve" smooth="yes"/>
      <point x="138" y="519"/>
      <point x="70" y="478"/>
    </contour>
  </outline>
</glyph>
<glyph name="circumflex" format="2">
  <advance width="418"/>
  <unicode hex="02C6"/>
  <outline>
    <contour>
      <point x="165" y="719" type="qcurve"/>
      <point x="168" y="719" type="line"/>
      <point x="249" y="719" type="line"/>
      <point x="393" y="522" type="line"/>
      <point x="291" y="522" type="line"/>
      <point x="278" y="540"/>
      <point x="222" y="617"/>
      <point x="207" y="638" type="qcurve"/>
      <point x="197" y="625"/>
      <point x="140" y="544"/>
      <point x="123" y="522" type="qcurve"/>
      <point x="25" y="522" type="line"/>
      <point x="45" y="551"/>
      <point x="140" y="682"/>
      <point x="165" y="719" type="qcurve"/>
      <point x="168" y="719" type="line"/>
      <point x="249" y="719" type="line"/>
      <point x="393" y="522" type="line"/>
      <point x="291" y="522" type="line"/>
      <point x="278" y="540"/>
      <point x="222" y="617"/>
      <point x="207" y="638" type="qcurve"/>
      <point x="197" y="625"/>
      <point x="140" y="544"/>
      <point x="123" y="522" type="qcurve"/>
      <point x="25" y="522" type="line"/>
      <point x="45" y="551"/>
      <point x="140" y="682"/>
      <point x="165" y="719" type="qcurve"/>
      <point x="168" y="719" type="line"/>
      <point x="249" y="719" type="line"/>
      <point x="393" y="522" type="line"/>
      <point x="291" y="522" type="line"/>
      <point x="278" y="540"/>
      <point x="222" y="617"/>
      <point x="207" y="638" type="qcurve"/>
      <point x="197" y="625"/>
      <point x="140" y="544"/>
      <point x="123" y="522" type="qcurve"/>
      <point x="25" y="522" type="line"/>
      <point x="45" y="551"/>
      <point x="140" y="682"/>
    </contour>
  </outline>
</glyph>
<glyph name="ring" format="2">
  <advance width="277"/>
  <unicode hex="02DA"/>
  <outline>
    <contour>
      <point x="139" y="521" type="qcurve" smooth="yes"/>
      <point x="89" y="521"/>
      <point x="25" y="575"/>
      <point x="25" y="621" type="qcurve" smooth="yes"/>
      <point x="25" y="643"/>
      <point x="40" y="679"/>
      <point x="69" y="706"/>
      <point x="111" y="721"/>
      <point x="139" y="721" type="qcurve" smooth="yes"/>
      <point x="193" y="721"/>
      <point x="252" y="665"/>
      <point x="252" y="621" type="qcurve" smooth="yes"/>
      <point x="252" y="599"/>
      <point x="234" y="562"/>
      <point x="204" y="536"/>
      <point x="162" y="521"/>
    </contour>
    <contour>
      <point x="139" y="652" type="qcurve" smooth="yes"/>
      <point x="120" y="652"/>
      <point x="100" y="634"/>
      <point x="100" y="620" type="qcurve" smooth="yes"/>
      <point x="100" y="608"/>
      <point x="120" y="589"/>
      <point x="139" y="589" type="qcurve" smooth="yes"/>
      <point x="157" y="589"/>
      <point x="177" y="608"/>
      <point x="177" y="620" type="qcurve" smooth="yes"/>
      <point x="177" y="635"/>
      <point x="157" y="652"/>
    </contour>
  </outline>
</glyph>
<glyph name="ogonek" format="2">
  <advance width="256"/>
  <unicode hex="02DB"/>
  <outline>
    <contour>
      <point x="231" y="-156" type="qcurve"/>
      <point x="231" y="-223" type="line"/>
      <point x="181" y="-254"/>
      <point x="111" y="-249" type="qcurve" smooth="yes"/>
      <point x="60" y="-244"/>
      <point x="41" y="-223" type="qcurve" smooth="yes"/>
      <point x="26" y="-208"/>
      <point x="24" y="-164"/>
      <point x="35" y="-147" type="qcurve" smooth="yes"/>
      <point x="40" y="-135"/>
      <point x="57" y="-114"/>
      <point x="81" y="-90"/>
      <point x="87" y="-82" type="qcurve" smooth="yes"/>
      <point x="100" y="-62"/>
      <point x="100" y="-51" type="qcurve"/>
      <point x="188" y="-51" type="line"/>
      <point x="188" y="-63"/>
      <point x="180" y="-80" type="qcurve" smooth="yes"/>
      <point x="173" y="-91"/>
      <point x="139" y="-128"/>
      <point x="132" y="-139" type="qcurve" smooth="yes"/>
      <point x="126" y="-146"/>
      <point x="124" y="-162"/>
      <point x="128" y="-171" type="qcurve" smooth="yes"/>
      <point x="134" y="-186"/>
      <point x="160" y="-186" type="qcurve" smooth="yes"/>
      <point x="199" y="-186"/>
    </contour>
    <contour>
      <point x="231" y="-156" type="qcurve"/>
      <point x="231" y="-223" type="line"/>
      <point x="181" y="-254"/>
      <point x="111" y="-249" type="qcurve" smooth="yes"/>
      <point x="60" y="-244"/>
      <point x="41" y="-223" type="qcurve" smooth="yes"/>
      <point x="26" y="-208"/>
      <point x="24" y="-164"/>
      <point x="35" y="-147" type="qcurve" smooth="yes"/>
      <point x="40" y="-135"/>
      <point x="57" y="-114"/>
      <point x="81" y="-90"/>
      <point x="87" y="-82" type="qcurve" smooth="yes"/>
      <point x="100" y="-62"/>
      <point x="100" y="-51" type="qcurve"/>
      <point x="188" y="-51" type="line"/>
      <point x="188" y="-63"/>
      <point x="180" y="-80" type="qcurve" smooth="yes"/>
      <point x="173" y="-91"/>
      <point x="139" y="-128"/>
      <point x="132" y="-139" type="qcurve" smooth="yes"/>
      <point x="126" y="-146"/>
      <point x="124" y="-162"/>
      <point x="128" y="-171" type="qcurve" smooth="yes"/>
      <point x="134" y="-186"/>
      <point x="160" y="-186" type="qcurve" smooth="yes"/>
      <point x="199" y="-186"/>
    </contour>
    <contour>
      <point x="231" y="-156" type="qcurve"/>
      <point x="231" y="-223" type="line"/>
      <point x="181" y="-254"/>
      <point x="111" y="-249" type="qcurve" smooth="yes"/>
      <point x="60" y="-244"/>
      <point x="41" y="-223" type="qcurve" smooth="yes"/>
      <point x="26" y="-208"/>
      <point x="24" y="-164"/>
      <point x="35" y="-147" type="qcurve" smooth="yes"/>
      <point x="40" y="-135"/>
      <point x="57" y="-114"/>
      <point x="81" y="-90"/>
      <point x="87" y="-82" type="qcurve" smooth="yes"/>
      <point x="100" y="-62"/>
      <point x="100" y="-51" type="qcurve"/>
      <point x="188" y="-51" type="line"/>
      <point x="188" y="-63"/>
      <point x="180" y="-80" type="qcurve" smooth="yes"/>
      <point x="173" y="-91"/>
      <point x="139" y="-128"/>
      <point x="132" y="-139" type="qcurve" smooth="yes"/>
      <point x="126" y="-146"/>
      <point x="124" y="-162"/>
      <point x="128" y="-171" type="qcurve" smooth="yes"/>
      <point x="134" y="-186"/>
      <point x="160" y="-186" type="qcurve" smooth="yes"/>
      <point x="199" y="-186"/>
    </contour>
  </outline>
</glyph>
<glyph name="tilde" format="2">
  <advance width="548"/>
  <unicode hex="02DC"/>
  <outline>
    <contour>
      <point x="467" y="656" type="qcurve" smooth="yes"/>
      <point x="479" y="662"/>
      <point x="501" y="686"/>
      <point x="512" y="702"/>
      <point x="523" y="720" type="qcurve"/>
      <point x="511" y="619"/>
      <point x="479" y="572" type="qcurve" smooth="yes"/>
      <point x="463" y="550"/>
      <point x="412" y="530"/>
      <point x="386" y="533" type="qcurve" smooth="yes"/>
      <point x="346" y="539"/>
      <point x="179" y="578"/>
      <point x="135" y="585" type="qcurve" smooth="yes"/>
      <point x="131" y="585"/>
      <point x="106" y="586"/>
      <point x="90" y="585"/>
      <point x="84" y="581" type="qcurve" smooth="yes"/>
      <point x="47" y="565"/>
      <point x="25" y="520" type="qcurve"/>
      <point x="25" y="613"/>
      <point x="71" y="666" type="qcurve" smooth="yes"/>
      <point x="106" y="706"/>
      <point x="160" y="699" type="qcurve" smooth="yes"/>
      <point x="208" y="694"/>
      <point x="379" y="657"/>
      <point x="411" y="652" type="qcurve" smooth="yes"/>
      <point x="443" y="645"/>
      <point x="467" y="656" type="qcurve" smooth="yes"/>
      <point x="479" y="662"/>
      <point x="501" y="686"/>
      <point x="512" y="702"/>
      <point x="523" y="720" type="qcurve"/>
      <point x="511" y="619"/>
      <point x="479" y="572" type="qcurve" smooth="yes"/>
      <point x="463" y="550"/>
      <point x="412" y="530"/>
      <point x="386" y="533" type="qcurve" smooth="yes"/>
      <point x="346" y="539"/>
      <point x="179" y="578"/>
      <point x="135" y="585" type="qcurve" smooth="yes"/>
      <point x="131" y="585"/>
      <point x="106" y="586"/>
      <point x="90" y="585"/>
      <point x="84" y="581" type="qcurve" smooth="yes"/>
      <point x="47" y="565"/>
      <point x="25" y="520" type="qcurve"/>
      <point x="25" y="613"/>
      <point x="71" y="666" type="qcurve" smooth="yes"/>
      <point x="106" y="706"/>
      <point x="160" y="699" type="qcurve" smooth="yes"/>
      <point x="208" y="694"/>
      <point x="379" y="657"/>
      <point x="411" y="652" type="qcurve" smooth="yes"/>
      <point x="443" y="645"/>
      <point x="467" y="656" type="qcurve" smooth="yes"/>
      <point x="479" y="662"/>
      <point x="501" y="686"/>
      <point x="512" y="702"/>
      <point x="523" y="720" type="qcurve"/>
      <point x="511" y="619"/>
      <point x="479" y="572" type="qcurve" smooth="yes"/>
      <point x="463" y="550"/>
      <point x="412" y="530"/>
      <point x="386" y="533" type="qcurve" smooth="yes"/>
      <point x="346" y="539"/>
      <point x="179" y="578"/>
      <point x="135" y="585" type="qcurve" smooth="yes"/>
      <point x="131" y="585"/>
      <point x="106" y="586"/>
      <point x="90" y="585"/>
      <point x="84" y="581" type="qcurve" smooth="yes"/>
      <point x="47" y="565"/>
      <point x="25" y="520" type="qcurve"/>
      <point x="25" y="613"/>
      <point x="71" y="666" type="qcurve" smooth="yes"/>
      <point x="106" y="706"/>
      <point x="160" y="699" type="qcurve" smooth="yes"/>
      <point x="208" y="694"/>
      <point x="379" y="657"/>
      <point x="411" y="652" type="qcurve" smooth="yes"/>
      <point x="443" y="645"/>
    </contour>
  </outline>
</glyph>
<glyph name="uni03A9" format="2">
  <advance width="780"/>
  <unicode hex="03A9"/>
  <outline>
    <contour>
      <point x="42" y="176" type="line"/>
      <point x="145" y="176" type="line"/>
      <point x="91" y="217"/>
      <point x="60" y="266" type="qcurve" smooth="yes"/>
      <point x="25" y="322"/>
      <point x="25" y="383" type="qcurve" smooth="yes"/>
      <point x="25" y="521"/>
      <point x="131" y="601" type="qcurve" smooth="yes"/>
      <point x="231" y="678"/>
      <point x="390" y="678" type="qcurve" smooth="yes"/>
      <point x="550" y="678"/>
      <point x="650" y="601" type="qcurve" smooth="yes"/>
      <point x="755" y="521"/>
      <point x="755" y="383" type="qcurve" smooth="yes"/>
      <point x="755" y="322"/>
      <point x="720" y="266" type="qcurve" smooth="yes"/>
      <point x="689" y="217"/>
      <point x="635" y="176" type="qcurve"/>
      <point x="738" y="176" type="line"/>
      <point x="738" y="0" type="line"/>
      <point x="440" y="0" type="line"/>
      <point x="440" y="176" type="line"/>
      <point x="495" y="193"/>
      <point x="525" y="242" type="qcurve" smooth="yes"/>
      <point x="550" y="284"/>
      <point x="550" y="335" type="qcurve" smooth="yes"/>
      <point x="550" y="396"/>
      <point x="517" y="441" type="qcurve" smooth="yes"/>
      <point x="474" y="499"/>
      <point x="390" y="499" type="qcurve" smooth="yes"/>
      <point x="306" y="499"/>
      <point x="263" y="441" type="qcurve" smooth="yes"/>
      <point x="230" y="396"/>
      <point x="230" y="335" type="qcurve" smooth="yes"/>
      <point x="230" y="284"/>
      <point x="255" y="242" type="qcurve" smooth="yes"/>
      <point x="285" y="193"/>
      <point x="340" y="176" type="qcurve"/>
      <point x="340" y="0" type="line"/>
      <point x="42" y="0" type="line"/>
    </contour>
  </outline>
</glyph>
<glyph name="Odieresis" format="2">
  <advance width="1015"/>
  <outline>
    <contour>
      <point x="598" y="960" type="qcurve" smooth="yes"/>
      <point x="673" y="970"/>
      <point x="727" y="954" type="qcurve"/>
      <point x="774" y="948"/>
      <point x="791" y="896" type="qcurve"/>
      <point x="806" y="828"/>
      <point x="768" y="790" type="qcurve"/>
      <point x="732" y="769"/>
      <point x="675" y="769" type="qcurve" smooth="yes"/>
      <point x="581" y="769"/>
      <point x="551" y="790" type="qcurve"/>
      <point x="530" y="811"/>
      <point x="524" y="844" type="qcurve" smooth="yes"/>
      <point x="519" y="872"/>
      <point x="528" y="901" type="qcurve" smooth="yes"/>
      <point x="534" y="924"/>
      <point x="554" y="939" type="qcurve" smooth="yes"/>
      <point x="577" y="956"/>
      <point x="598" y="960" type="qcurve" smooth="yes"/>
      <point x="673" y="970"/>
      <point x="727" y="954" type="qcurve"/>
      <point x="774" y="948"/>
      <point x="791" y="896" type="qcurve"/>
      <point x="806" y="828"/>
      <point x="768" y="790" type="qcurve"/>
      <point x="732" y="769"/>
      <point x="675" y="769" type="qcurve" smooth="yes"/>
      <point x="581" y="769"/>
      <point x="551" y="790" type="qcurve"/>
      <point x="530" y="811"/>
      <point x="524" y="844" type="qcurve" smooth="yes"/>
      <point x="519" y="872"/>
      <point x="528" y="901" type="qcurve" smooth="yes"/>
      <point x="534" y="924"/>
      <point x="554" y="939" type="qcurve" smooth="yes"/>
      <point x="577" y="956"/>
      <point x="598" y="960" type="qcurve" smooth="yes"/>
      <point x="673" y="970"/>
      <point x="727" y="954" type="qcurve"/>
      <point x="774" y="948"/>
      <point x="791" y="896" type="qcurve"/>
      <point x="806" y="828"/>
      <point x="768" y="790" type="qcurve"/>
      <point x="732" y="769"/>
      <point x="675" y="769" type="qcurve" smooth="yes"/>
      <point x="581" y="769"/>
      <point x="551" y="790" type="qcurve"/>
      <point x="530" y="811"/>
      <point x="524" y="844" type="qcurve" smooth="yes"/>
      <point x="519" y="872"/>
      <point x="528" y="901" type="qcurve" smooth="yes"/>
      <point x="534" y="924"/>
      <point x="554" y="939" type="qcurve" smooth="yes"/>
      <point x="577" y="956"/>
    </contour>
    <contour>
      <point x="300" y="960" type="qcurve" smooth="yes"/>
      <point x="375" y="970"/>
      <point x="429" y="954" type="qcurve"/>
      <point x="476" y="948"/>
      <point x="493" y="896" type="qcurve"/>
      <point x="508" y="828"/>
      <point x="469" y="790" type="qcurve"/>
      <point x="434" y="769"/>
      <point x="377" y="769" type="qcurve" smooth="yes"/>
      <point x="282" y="769"/>
      <point x="253" y="790" type="qcurve"/>
      <point x="232" y="811"/>
      <point x="226" y="844" type="qcurve" smooth="yes"/>
      <point x="221" y="872"/>
      <point x="230" y="901" type="qcurve" smooth="yes"/>
      <point x="236" y="924"/>
      <point x="256" y="939" type="qcurve" smooth="yes"/>
      <point x="279" y="956"/>
      <point x="300" y="960" type="qcurve" smooth="yes"/>
      <point x="375" y="970"/>
      <point x="429" y="954" type="qcurve"/>
      <point x="476" y="948"/>
      <point x="493" y="896" type="qcurve"/>
      <point x="508" y="828"/>
      <point x="469" y="790" type="qcurve"/>
      <point x="434" y="769"/>
      <point x="377" y="769" type="qcurve" smooth="yes"/>
      <point x="282" y="769"/>
      <point x="253" y="790" type="qcurve"/>
      <point x="232" y="811"/>
      <point x="226" y="844" type="qcurve" smooth="yes"/>
      <point x="221" y="872"/>
      <point x="230" y="901" type="qcurve" smooth="yes"/>
      <point x="236" y="924"/>
      <point x="256" y="939" type="qcurve" smooth="yes"/>
      <point x="279" y="956"/>
      <point x="300" y="960" type="qcurve" smooth="yes"/>
      <point x="375" y="970"/>
      <point x="429" y="954" type="qcurve"/>
      <point x="476" y="948"/>
      <point x="493" y="896" type="qcurve"/>
      <point x="508" y="828"/>
      <point x="469" y="790" type="qcurve"/>
      <point x="434" y="769"/>
      <point x="377" y="769" type="qcurve" smooth="yes"/>
      <point x="282" y="769"/>
      <point x="253" y="790" type="qcurve"/>
      <point x="232" y="811"/>
      <point x="226" y="844" type="qcurve" smooth="yes"/>
      <point x="221" y="872"/>
      <point x="230" y="901" type="qcurve" smooth="yes"/>
      <point x="236" y="924"/>
      <point x="256" y="939" type="qcurve" smooth="yes"/>
      <point x="279" y="956"/>
    </contour>
    <contour>
      <point x="408" y="712" type="qcurve" smooth="yes"/>
      <point x="610" y="728"/>
      <point x="749" y="684" type="qcurve" smooth="yes"/>
      <point x="884" y="642"/>
      <point x="943" y="537" type="qcurve" smooth="yes"/>
      <point x="1007" y="425"/>
      <point x="984" y="260" type="qcurve" smooth="yes"/>
      <point x="974" y="196"/>
      <point x="908" y="88"/>
      <point x="855" y="55" type="qcurve" smooth="yes"/>
      <point x="740" y="-18"/>
      <point x="532" y="-24" type="qcurve" smooth="yes"/>
      <point x="432" y="-24"/>
      <point x="272" y="-3"/>
      <point x="201" y="28" type="qcurve" smooth="yes"/>
      <point x="148" y="52"/>
      <point x="69" y="133"/>
      <point x="49" y="186" type="qcurve" smooth="yes"/>
      <point x="16" y="277"/>
      <point x="28" y="403" type="qcurve" smooth="yes"/>
      <point x="42" y="540"/>
      <point x="131" y="614" type="qcurve" smooth="yes"/>
      <point x="227" y="697"/>
    </contour>
    <contour>
      <point x="471" y="563" type="qcurve" smooth="yes"/>
      <point x="407" y="551"/>
      <point x="378" y="499" type="qcurve" smooth="yes"/>
      <point x="357" y="462"/>
      <point x="345" y="376"/>
      <point x="346" y="319" type="qcurve" smooth="yes"/>
      <point x="348" y="286"/>
      <point x="354" y="244"/>
      <point x="373" y="189"/>
      <point x="389" y="170" type="qcurve" smooth="yes"/>
      <point x="433" y="123"/>
      <point x="527" y="129" type="qcurve" smooth="yes"/>
      <point x="606" y="135"/>
      <point x="637" y="187" type="qcurve" smooth="yes"/>
      <point x="658" y="222"/>
      <point x="669" y="304"/>
      <point x="668" y="361" type="qcurve" smooth="yes"/>
      <point x="665" y="415"/>
      <point x="646" y="493"/>
      <point x="620" y="523" type="qcurve" smooth="yes"/>
      <point x="595" y="552"/>
      <point x="514" y="570"/>
    </contour>
    <contour>
      <point x="505" y="454" type="line"/>
      <point x="595" y="337" type="line"/>
      <point x="583" y="323"/>
      <point x="550" y="279" type="qcurve" smooth="yes"/>
      <point x="519" y="239" type="line"/>
      <point x="505" y="221" type="line" smooth="yes"/>
      <point x="505" y="220"/>
      <point x="492" y="237"/>
      <point x="471" y="265"/>
      <point x="461" y="279" type="qcurve" smooth="yes"/>
      <point x="417" y="338" type="line"/>
    </contour>
  </outline>
</glyph>
<glyph name="adieresis" format="2">
  <advance width="1126"/>
  <outline>
    <contour>
      <point x="646" y="940" type="qcurve" smooth="yes"/>
      <point x="721" y="950"/>
      <point x="775" y="934" type="qcurve"/>
      <point x="822" y="928"/>
      <point x="839" y="876" type="qcurve"/>
      <point x="854" y="808"/>
      <point x="816" y="770" type="qcurve"/>
      <point x="780" y="749"/>
      <point x="703" y="749" type="qcurve" smooth="yes"/>
      <point x="629" y="749"/>
      <point x="599" y="770" type="qcurve"/>
      <point x="578" y="791"/>
      <point x="566" y="856"/>
      <point x="576" y="881" type="qcurve"/>
      <point x="580" y="902"/>
      <point x="623" y="935"/>
      <point x="646" y="940" type="qcurve" smooth="yes"/>
      <point x="721" y="950"/>
      <point x="775" y="934" type="qcurve"/>
      <point x="822" y="928"/>
      <point x="839" y="876" type="qcurve"/>
      <point x="854" y="808"/>
      <point x="816" y="770" type="qcurve"/>
      <point x="780" y="749"/>
      <point x="703" y="749" type="qcurve" smooth="yes"/>
      <point x="629" y="749"/>
      <point x="599" y="770" type="qcurve"/>
      <point x="578" y="791"/>
      <point x="566" y="856"/>
      <point x="576" y="881" type="qcurve"/>
      <point x="580" y="902"/>
      <point x="623" y="935"/>
      <point x="646" y="940" type="qcurve" smooth="yes"/>
      <point x="721" y="950"/>
      <point x="775" y="934" type="qcurve"/>
      <point x="822" y="928"/>
      <point x="839" y="876" type="qcurve"/>
      <point x="854" y="808"/>
      <point x="816" y="770" type="qcurve"/>
      <point x="780" y="749"/>
      <point x="703" y="749" type="qcurve" smooth="yes"/>
      <point x="629" y="749"/>
      <point x="599" y="770" type="qcurve"/>
      <point x="578" y="791"/>
      <point x="566" y="856"/>
      <point x="576" y="881" type="qcurve"/>
      <point x="580" y="902"/>
      <point x="623" y="935"/>
    </contour>
    <contour>
      <point x="348" y="940" type="qcurve" smooth="yes"/>
      <point x="423" y="950"/>
      <point x="477" y="934" type="qcurve"/>
      <point x="524" y="928"/>
      <point x="541" y="876" type="qcurve"/>
      <point x="556" y="808"/>
      <point x="517" y="770" type="qcurve"/>
      <point x="482" y="749"/>
      <point x="405" y="749" type="qcurve" smooth="yes"/>
      <point x="330" y="749"/>
      <point x="301" y="770" type="qcurve"/>
      <point x="280" y="791"/>
      <point x="274" y="824" type="qcurve" smooth="yes"/>
      <point x="269" y="852"/>
      <point x="278" y="881" type="qcurve" smooth="yes"/>
      <point x="284" y="904"/>
      <point x="304" y="919" type="qcurve" smooth="yes"/>
      <point x="327" y="936"/>
      <point x="348" y="940" type="qcurve" smooth="yes"/>
      <point x="423" y="950"/>
      <point x="477" y="934" type="qcurve"/>
      <point x="524" y="928"/>
      <point x="541" y="876" type="qcurve"/>
      <point x="556" y="808"/>
      <point x="517" y="770" type="qcurve"/>
      <point x="482" y="749"/>
      <point x="405" y="749" type="qcurve" smooth="yes"/>
      <point x="330" y="749"/>
      <point x="301" y="770" type="qcurve"/>
      <point x="280" y="791"/>
      <point x="274" y="824" type="qcurve" smooth="yes"/>
      <point x="269" y="852"/>
      <point x="278" y="881" type="qcurve" smooth="yes"/>
      <point x="284" y="904"/>
      <point x="304" y="919" type="qcurve" smooth="yes"/>
      <point x="327" y="936"/>
      <point x="348" y="940" type="qcurve" smooth="yes"/>
      <point x="423" y="950"/>
      <point x="477" y="934" type="qcurve"/>
      <point x="524" y="928"/>
      <point x="541" y="876" type="qcurve"/>
      <point x="556" y="808"/>
      <point x="517" y="770" type="qcurve"/>
      <point x="482" y="749"/>
      <point x="405" y="749" type="qcurve" smooth="yes"/>
      <point x="330" y="749"/>
      <point x="301" y="770" type="qcurve"/>
      <point x="280" y="791"/>
      <point x="274" y="824" type="qcurve" smooth="yes"/>
      <point x="269" y="852"/>
      <point x="278" y="881" type="qcurve" smooth="yes"/>
      <point x="284" y="904"/>
      <point x="304" y="919" type="qcurve" smooth="yes"/>
      <point x="327" y="936"/>
    </contour>
    <contour>
      <point x="656" y="274" type="line"/>
      <point x="558" y="455" type="line"/>
      <point x="452" y="255" type="line"/>
    </contour>
    <contour>
      <point x="378" y="120" type="line"/>
      <point x="377" y="118" type="line" smooth="yes"/>
      <point x="357" y="77"/>
      <point x="357" y="50" type="qcurve" smooth="yes"/>
      <point x="357" y="14"/>
      <point x="376" y="0" type="qcurve"/>
      <point x="17" y="0" type="line"/>
      <point x="81" y="53"/>
      <point x="151" y="187" type="qcurve" smooth="yes"/>
      <point x="372" y="597" type="line" smooth="yes"/>
      <point x="392" y="638"/>
      <point x="392" y="652" type="qcurve" smooth="yes"/>
      <point x="392" y="683"/>
      <point x="373" y="700" type="qcurve"/>
      <point x="692" y="700" type="line"/>
      <point x="967" y="187" type="line" smooth="yes"/>
      <point x="1037" y="53"/>
      <point x="1101" y="0" type="qcurve"/>
      <point x="742" y="0" type="line"/>
      <point x="761" y="14"/>
      <point x="761" y="50" type="qcurve" smooth="yes"/>
      <point x="761" y="80"/>
      <point x="740" y="118" type="qcurve" smooth="yes"/>
      <point x="722" y="151" type="line"/>
    </contour>
  </outline>
</glyph>
<glyph name="edieresis" format="2">
  <advance width="839"/>
  <outline>
    <contour>
      <point x="516" y="940" type="qcurve" smooth="yes"/>
      <point x="591" y="950"/>
      <point x="645" y="934" type="qcurve"/>
      <point x="692" y="928"/>
      <point x="709" y="876" type="qcurve"/>
      <point x="724" y="808"/>
      <point x="686" y="770" type="qcurve"/>
      <point x="650" y="749"/>
      <point x="573" y="749" type="qcurve" smooth="yes"/>
      <point x="499" y="749"/>
      <point x="469" y="770" type="qcurve"/>
      <point x="448" y="791"/>
      <point x="436" y="856"/>
      <point x="446" y="881" type="qcurve"/>
      <point x="450" y="902"/>
      <point x="493" y="935"/>
      <point x="516" y="940" type="qcurve" smooth="yes"/>
      <point x="591" y="950"/>
      <point x="645" y="934" type="qcurve"/>
      <point x="692" y="928"/>
      <point x="709" y="876" type="qcurve"/>
      <point x="724" y="808"/>
      <point x="686" y="770" type="qcurve"/>
      <point x="650" y="749"/>
      <point x="573" y="749" type="qcurve" smooth="yes"/>
      <point x="499" y="749"/>
      <point x="469" y="770" type="qcurve"/>
      <point x="448" y="791"/>
      <point x="436" y="856"/>
      <point x="446" y="881" type="qcurve"/>
      <point x="450" y="902"/>
      <point x="493" y="935"/>
      <point x="516" y="940" type="qcurve" smooth="yes"/>
      <point x="591" y="950"/>
      <point x="645" y="934" type="qcurve"/>
      <point x="692" y="928"/>
      <point x="709" y="876" type="qcurve"/>
      <point x="724" y="808"/>
      <point x="686" y="770" type="qcurve"/>
      <point x="650" y="749"/>
      <point x="573" y="749" type="qcurve" smooth="yes"/>
      <point x="499" y="749"/>
      <point x="469" y="770" type="qcurve"/>
      <point x="448" y="791"/>
      <point x="436" y="856"/>
      <point x="446" y="881" type="qcurve"/>
      <point x="450" y="902"/>
      <point x="493" y="935"/>
    </contour>
    <contour>
      <point x="218" y="940" type="qcurve" smooth="yes"/>
      <point x="293" y="950"/>
      <point x="347" y="934" type="qcurve"/>
      <point x="394" y="928"/>
      <point x="411" y="876" type="qcurve"/>
      <point x="426" y="808"/>
      <point x="387" y="770" type="qcurve"/>
      <point x="352" y="749"/>
      <point x="275" y="749" type="qcurve" smooth="yes"/>
      <point x="200" y="749"/>
      <point x="171" y="770" type="qcurve"/>
      <point x="150" y="791"/>
      <point x="144" y="824" type="qcurve" smooth="yes"/>
      <point x="139" y="852"/>
      <point x="148" y="881" type="qcurve" smooth="yes"/>
      <point x="154" y="904"/>
      <point x="174" y="919" type="qcurve" smooth="yes"/>
      <point x="197" y="936"/>
      <point x="218" y="940" type="qcurve" smooth="yes"/>
      <point x="293" y="950"/>
      <point x="347" y="934" type="qcurve"/>
      <point x="394" y="928"/>
      <point x="411" y="876" type="qcurve"/>
      <point x="426" y="808"/>
      <point x="387" y="770" type="qcurve"/>
      <point x="352" y="749"/>
      <point x="275" y="749" type="qcurve" smooth="yes"/>
      <point x="200" y="749"/>
      <point x="171" y="770" type="qcurve"/>
      <point x="150" y="791"/>
      <point x="144" y="824" type="qcurve" smooth="yes"/>
      <point x="139" y="852"/>
      <point x="148" y="881" type="qcurve" smooth="yes"/>
      <point x="154" y="904"/>
      <point x="174" y="919" type="qcurve" smooth="yes"/>
      <point x="197" y="936"/>
      <point x="218" y="940" type="qcurve" smooth="yes"/>
      <point x="293" y="950"/>
      <point x="347" y="934" type="qcurve"/>
      <point x="394" y="928"/>
      <point x="411" y="876" type="qcurve"/>
      <point x="426" y="808"/>
      <point x="387" y="770" type="qcurve"/>
      <point x="352" y="749"/>
      <point x="275" y="749" type="qcurve" smooth="yes"/>
      <point x="200" y="749"/>
      <point x="171" y="770" type="qcurve"/>
      <point x="150" y="791"/>
      <point x="144" y="824" type="qcurve" smooth="yes"/>
      <point x="139" y="852"/>
      <point x="148" y="881" type="qcurve" smooth="yes"/>
      <point x="154" y="904"/>
      <point x="174" y="919" type="qcurve" smooth="yes"/>
      <point x="197" y="936"/>
    </contour>
    <contour>
      <point x="25" y="701" type="qcurve"/>
      <point x="285" y="700"/>
      <point x="801" y="700" type="qcurve"/>
      <point x="802" y="664"/>
      <point x="802" y="526"/>
      <point x="802" y="490" type="qcurve"/>
      <point x="769" y="532"/>
      <point x="707" y="532" type="qcurve" smooth="yes"/>
      <point x="358" y="532" type="line"/>
      <point x="358" y="431" type="line"/>
      <point x="722" y="431" type="line"/>
      <point x="722" y="282" type="line"/>
      <point x="358" y="282" type="line"/>
      <point x="358" y="167" type="line"/>
      <point x="412" y="168"/>
      <point x="627" y="168"/>
      <point x="681" y="168" type="qcurve" smooth="yes"/>
      <point x="734" y="168"/>
      <point x="751" y="174" type="qcurve" smooth="yes"/>
      <point x="798" y="193"/>
      <point x="814" y="230" type="qcurve"/>
      <point x="814" y="0" type="line"/>
      <point x="25" y="0" type="line"/>
      <point x="75" y="31"/>
      <point x="75" y="91" type="qcurve" smooth="yes"/>
      <point x="75" y="606" type="line" smooth="yes"/>
      <point x="76" y="634"/>
      <point x="49" y="686"/>
    </contour>
  </outline>
</glyph>
<glyph name="odieresis" format="2">
  <advance width="1015"/>
  <outline>
    <contour>
      <point x="590" y="921" type="qcurve" smooth="yes"/>
      <point x="658" y="930"/>
      <point x="707" y="916" type="qcurve"/>
      <point x="750" y="910"/>
      <point x="765" y="863" type="qcurve"/>
      <point x="779" y="801"/>
      <point x="744" y="767" type="qcurve"/>
      <point x="712" y="748"/>
      <point x="660" y="748" type="qcurve" smooth="yes"/>
      <point x="574" y="748"/>
      <point x="547" y="767" type="qcurve"/>
      <point x="528" y="786"/>
      <point x="522" y="816" type="qcurve" smooth="yes"/>
      <point x="518" y="841"/>
      <point x="526" y="868" type="qcurve" smooth="yes"/>
      <point x="532" y="889"/>
      <point x="550" y="902" type="qcurve" smooth="yes"/>
      <point x="571" y="918"/>
      <point x="590" y="921" type="qcurve" smooth="yes"/>
      <point x="658" y="930"/>
      <point x="707" y="916" type="qcurve"/>
      <point x="750" y="910"/>
      <point x="765" y="863" type="qcurve"/>
      <point x="779" y="801"/>
      <point x="744" y="767" type="qcurve"/>
      <point x="712" y="748"/>
      <point x="660" y="748" type="qcurve" smooth="yes"/>
      <point x="574" y="748"/>
      <point x="547" y="767" type="qcurve"/>
      <point x="528" y="786"/>
      <point x="522" y="816" type="qcurve" smooth="yes"/>
      <point x="518" y="841"/>
      <point x="526" y="868" type="qcurve" smooth="yes"/>
      <point x="532" y="889"/>
      <point x="550" y="902" type="qcurve" smooth="yes"/>
      <point x="571" y="918"/>
      <point x="590" y="921" type="qcurve" smooth="yes"/>
      <point x="658" y="930"/>
      <point x="707" y="916" type="qcurve"/>
      <point x="750" y="910"/>
      <point x="765" y="863" type="qcurve"/>
      <point x="779" y="801"/>
      <point x="744" y="767" type="qcurve"/>
      <point x="712" y="748"/>
      <point x="660" y="748" type="qcurve" smooth="yes"/>
      <point x="574" y="748"/>
      <point x="547" y="767" type="qcurve"/>
      <point x="528" y="786"/>
      <point x="522" y="816" type="qcurve" smooth="yes"/>
      <point x="518" y="841"/>
      <point x="526" y="868" type="qcurve" smooth="yes"/>
      <point x="532" y="889"/>
      <point x="550" y="902" type="qcurve" smooth="yes"/>
      <point x="571" y="918"/>
    </contour>
    <contour>
      <point x="319" y="921" type="qcurve" smooth="yes"/>
      <point x="387" y="930"/>
      <point x="436" y="916" type="qcurve"/>
      <point x="479" y="910"/>
      <point x="494" y="863" type="qcurve"/>
      <point x="508" y="801"/>
      <point x="473" y="767" type="qcurve"/>
      <point x="441" y="748"/>
      <point x="389" y="748" type="qcurve" smooth="yes"/>
      <point x="303" y="748"/>
      <point x="276" y="767" type="qcurve"/>
      <point x="257" y="786"/>
      <point x="252" y="816" type="qcurve" smooth="yes"/>
      <point x="247" y="841"/>
      <point x="255" y="868" type="qcurve" smooth="yes"/>
      <point x="261" y="889"/>
      <point x="278" y="902" type="qcurve" smooth="yes"/>
      <point x="300" y="918"/>
      <point x="319" y="921" type="qcurve" smooth="yes"/>
      <point x="387" y="930"/>
      <point x="436" y="916" type="qcurve"/>
      <point x="479" y="910"/>
      <point x="494" y="863" type="qcurve"/>
      <point x="508" y="801"/>
      <point x="473" y="767" type="qcurve"/>
      <point x="441" y="748"/>
      <point x="389" y="748" type="qcurve" smooth="yes"/>
      <point x="303" y="748"/>
      <point x="276" y="767" type="qcurve"/>
      <point x="257" y="786"/>
      <point x="252" y="816" type="qcurve" smooth="yes"/>
      <point x="247" y="841"/>
      <point x="255" y="868" type="qcurve" smooth="yes"/>
      <point x="261" y="889"/>
      <point x="278" y="902" type="qcurve" smooth="yes"/>
      <point x="300" y="918"/>
      <point x="319" y="921" type="qcurve" smooth="yes"/>
      <point x="387" y="930"/>
      <point x="436" y="916" type="qcurve"/>
      <point x="479" y="910"/>
      <point x="494" y="863" type="qcurve"/>
      <point x="508" y="801"/>
      <point x="473" y="767" type="qcurve"/>
      <point x="441" y="748"/>
      <point x="389" y="748" type="qcurve" smooth="yes"/>
      <point x="303" y="748"/>
      <point x="276" y="767" type="qcurve"/>
      <point x="257" y="786"/>
      <point x="252" y="816" type="qcurve" smooth="yes"/>
      <point x="247" y="841"/>
      <point x="255" y="868" type="qcurve" smooth="yes"/>
      <point x="261" y="889"/>
      <point x="278" y="902" type="qcurve" smooth="yes"/>
      <point x="300" y="918"/>
    </contour>
    <contour>
      <point x="408" y="712" type="qcurve" smooth="yes"/>
      <point x="610" y="728"/>
      <point x="749" y="684" type="qcurve" smooth="yes"/>
      <point x="884" y="642"/>
      <point x="943" y="537" type="qcurve" smooth="yes"/>
      <point x="1007" y="425"/>
      <point x="984" y="260" type="qcurve" smooth="yes"/>
      <point x="974" y="196"/>
      <point x="908" y="88"/>
      <point x="855" y="55" type="qcurve" smooth="yes"/>
      <point x="740" y="-18"/>
      <point x="532" y="-24" type="qcurve" smooth="yes"/>
      <point x="432" y="-24"/>
      <point x="272" y="-3"/>
      <point x="201" y="28" type="qcurve" smooth="yes"/>
      <point x="148" y="52"/>
      <point x="69" y="133"/>
      <point x="49" y="186" type="qcurve" smooth="yes"/>
      <point x="16" y="277"/>
      <point x="28" y="403" type="qcurve" smooth="yes"/>
      <point x="42" y="540"/>
      <point x="131" y="614" type="qcurve" smooth="yes"/>
      <point x="227" y="697"/>
    </contour>
    <contour>
      <point x="471" y="563" type="qcurve" smooth="yes"/>
      <point x="407" y="551"/>
      <point x="378" y="499" type="qcurve" smooth="yes"/>
      <point x="357" y="462"/>
      <point x="345" y="376"/>
      <point x="346" y="319" type="qcurve" smooth="yes"/>
      <point x="348" y="286"/>
      <point x="354" y="244"/>
      <point x="373" y="189"/>
      <point x="389" y="170" type="qcurve" smooth="yes"/>
      <point x="433" y="123"/>
      <point x="527" y="129" type="qcurve" smooth="yes"/>
      <point x="606" y="135"/>
      <point x="637" y="187" type="qcurve" smooth="yes"/>
      <point x="658" y="222"/>
      <point x="669" y="304"/>
      <point x="668" y="361" type="qcurve" smooth="yes"/>
      <point x="665" y="415"/>
      <point x="646" y="493"/>
      <point x="620" y="523" type="qcurve" smooth="yes"/>
      <point x="595" y="552"/>
      <point x="514" y="570"/>
    </contour>
    <contour>
      <point x="505" y="454" type="line"/>
      <point x="595" y="337" type="line"/>
      <point x="583" y="323"/>
      <point x="550" y="279" type="qcurve" smooth="yes"/>
      <point x="519" y="239" type="line"/>
      <point x="505" y="221" type="line" smooth="yes"/>
      <point x="505" y="220"/>
      <point x="492" y="237"/>
      <point x="471" y="265"/>
      <point x="461" y="279" type="qcurve" smooth="yes"/>
      <point x="417" y="338" type="line"/>
    </contour>
  </outline>
</glyph>
<glyph name="ydieresis" format="2">
  <advance width="1095"/>
  <outline>
    <contour>
      <point x="633" y="921" type="qcurve" smooth="yes"/>
      <point x="701" y="930"/>
      <point x="750" y="916" type="qcurve"/>
      <point x="793" y="910"/>
      <point x="808" y="863" type="qcurve"/>
      <point x="822" y="801"/>
      <point x="787" y="767" type="qcurve"/>
      <point x="755" y="748"/>
      <point x="685" y="748" type="qcurve" smooth="yes"/>
      <point x="617" y="748"/>
      <point x="590" y="767" type="qcurve"/>
      <point x="571" y="786"/>
      <point x="560" y="845"/>
      <point x="569" y="868" type="qcurve" smooth="yes"/>
      <point x="573" y="887"/>
      <point x="612" y="917"/>
      <point x="633" y="921" type="qcurve" smooth="yes"/>
      <point x="701" y="930"/>
      <point x="750" y="916" type="qcurve"/>
      <point x="793" y="910"/>
      <point x="808" y="863" type="qcurve"/>
      <point x="822" y="801"/>
      <point x="787" y="767" type="qcurve"/>
      <point x="755" y="748"/>
      <point x="685" y="748" type="qcurve" smooth="yes"/>
      <point x="617" y="748"/>
      <point x="590" y="767" type="qcurve"/>
      <point x="571" y="786"/>
      <point x="560" y="845"/>
      <point x="569" y="868" type="qcurve" smooth="yes"/>
      <point x="573" y="887"/>
      <point x="612" y="917"/>
      <point x="633" y="921" type="qcurve" smooth="yes"/>
      <point x="701" y="930"/>
      <point x="750" y="916" type="qcurve"/>
      <point x="793" y="910"/>
      <point x="808" y="863" type="qcurve"/>
      <point x="822" y="801"/>
      <point x="787" y="767" type="qcurve"/>
      <point x="755" y="748"/>
      <point x="685" y="748" type="qcurve" smooth="yes"/>
      <point x="617" y="748"/>
      <point x="590" y="767" type="qcurve"/>
      <point x="571" y="786"/>
      <point x="560" y="845"/>
      <point x="569" y="868" type="qcurve" smooth="yes"/>
      <point x="573" y="887"/>
      <point x="612" y="917"/>
    </contour>
    <contour>
      <point x="362" y="921" type="qcurve" smooth="yes"/>
      <point x="430" y="930"/>
      <point x="479" y="916" type="qcurve"/>
      <point x="522" y="910"/>
      <point x="537" y="863" type="qcurve"/>
      <point x="551" y="801"/>
      <point x="516" y="767" type="qcurve"/>
      <point x="484" y="748"/>
      <point x="414" y="748" type="qcurve" smooth="yes"/>
      <point x="346" y="748"/>
      <point x="319" y="767" type="qcurve"/>
      <point x="300" y="786"/>
      <point x="294" y="816" type="qcurve" smooth="yes"/>
      <point x="290" y="841"/>
      <point x="298" y="868" type="qcurve" smooth="yes"/>
      <point x="304" y="889"/>
      <point x="322" y="902" type="qcurve" smooth="yes"/>
      <point x="343" y="918"/>
      <point x="362" y="921" type="qcurve" smooth="yes"/>
      <point x="430" y="930"/>
      <point x="479" y="916" type="qcurve"/>
      <point x="522" y="910"/>
      <point x="537" y="863" type="qcurve"/>
      <point x="551" y="801"/>
      <point x="516" y="767" type="qcurve"/>
      <point x="484" y="748"/>
      <point x="414" y="748" type="qcurve" smooth="yes"/>
      <point x="346" y="748"/>
      <point x="319" y="767" type="qcurve"/>
      <point x="300" y="786"/>
      <point x="294" y="816" type="qcurve" smooth="yes"/>
      <point x="290" y="841"/>
      <point x="298" y="868" type="qcurve" smooth="yes"/>
      <point x="304" y="889"/>
      <point x="322" y="902" type="qcurve" smooth="yes"/>
      <point x="343" y="918"/>
      <point x="362" y="921" type="qcurve" smooth="yes"/>
      <point x="430" y="930"/>
      <point x="479" y="916" type="qcurve"/>
      <point x="522" y="910"/>
      <point x="537" y="863" type="qcurve"/>
      <point x="551" y="801"/>
      <point x="516" y="767" type="qcurve"/>
      <point x="484" y="748"/>
      <point x="414" y="748" type="qcurve" smooth="yes"/>
      <point x="346" y="748"/>
      <point x="319" y="767" type="qcurve"/>
      <point x="300" y="786"/>
      <point x="294" y="816" type="qcurve" smooth="yes"/>
      <point x="290" y="841"/>
      <point x="298" y="868" type="qcurve" smooth="yes"/>
      <point x="304" y="889"/>
      <point x="322" y="902" type="qcurve" smooth="yes"/>
      <point x="343" y="918"/>
    </contour>
    <contour>
      <point x="411" y="237" type="line"/>
      <point x="110" y="629" type="line" smooth="yes"/>
      <point x="63" y="689"/>
      <point x="25" y="701" type="qcurve"/>
      <point x="405" y="701" type="line"/>
      <point x="393" y="690"/>
      <point x="393" y="673" type="qcurve" smooth="yes"/>
      <point x="393" y="655"/>
      <point x="415" y="629" type="qcurve" smooth="yes"/>
      <point x="547" y="457" type="line"/>
      <point x="680" y="629" type="line" smooth="yes"/>
      <point x="703" y="656"/>
      <point x="703" y="673" type="qcurve" smooth="yes"/>
      <point x="703" y="689"/>
      <point x="691" y="701" type="qcurve"/>
      <point x="1070" y="701" type="line"/>
      <point x="1049" y="693"/>
      <point x="997" y="648"/>
      <point x="985" y="629" type="qcurve" smooth="yes"/>
      <point x="683" y="237" type="line"/>
      <point x="683" y="215" type="line" smooth="yes"/>
      <point x="683" y="40"/>
      <point x="742" y="1" type="qcurve"/>
      <point x="352" y="1" type="line"/>
      <point x="387" y="23"/>
      <point x="411" y="130"/>
      <point x="411" y="215" type="qcurve" smooth="yes"/>
    </contour>
  </outline>
</glyph>
